%TF.GenerationSoftware,KiCad,Pcbnew,10.0.6*%
%TF.CreationDate,2026-09-28T22:00:05+03:00*%
%TF.ProjectId,OpenLED,4f70656e-4c45-4442-9e6b-696361645f70,rev?*%
%TF.SameCoordinates,Original*%
%TF.FileFunction,Legend,Top*%
%TF.FilePolarity,Positive*%
%FSLAX46Y46*%
G04 Gerber Fmt 4.6, Leading zero omitted, Abs format (unit mm)*
G04 Created by KiCad (PCBNEW 10.0.6) date 2026-09-28 22:00:05*
%MOMM*%
%LPD*%
G01*
G04 APERTURE LIST*
G04 Aperture macros list*
%AMRoundRect*
0 Rectangle with rounded corners*
0 $1 Rounding radius*
0 $2 $3 $4 $5 $6 $7 $8 $9 X,Y pos of 4 corners*
0 Add a 4 corners polygon primitive as box body*
4,1,4,$2,$3,$4,$5,$6,$7,$8,$9,$2,$3,0*
0 Add four circle primitives for the rounded corners*
1,1,$1+$1,$2,$3*
1,1,$1+$1,$4,$5*
1,1,$1+$1,$6,$7*
1,1,$1+$1,$8,$9*
0 Add four rect primitives between the rounded corners*
20,1,$1+$1,$2,$3,$4,$5,0*
20,1,$1+$1,$4,$5,$6,$7,0*
20,1,$1+$1,$6,$7,$8,$9,0*
20,1,$1+$1,$8,$9,$2,$3,0*%
G04 Aperture macros list end*
%ADD10C,0.150000*%
%ADD11C,0.120000*%
%ADD12RoundRect,0.140000X-0.140000X-0.170000X0.140000X-0.170000X0.140000X0.170000X-0.140000X0.170000X0*%
%ADD13RoundRect,0.090000X-0.360000X0.660000X-0.360000X-0.660000X0.360000X-0.660000X0.360000X0.660000X0*%
%ADD14RoundRect,0.250000X-0.500000X-0.500000X0.500000X-0.500000X0.500000X0.500000X-0.500000X0.500000X0*%
%ADD15RoundRect,0.150000X0.625000X-0.150000X0.625000X0.150000X-0.625000X0.150000X-0.625000X-0.150000X0*%
%ADD16RoundRect,0.250000X0.650000X-0.350000X0.650000X0.350000X-0.650000X0.350000X-0.650000X-0.350000X0*%
%ADD17RoundRect,0.150000X-0.625000X0.150000X-0.625000X-0.150000X0.625000X-0.150000X0.625000X0.150000X0*%
%ADD18RoundRect,0.250000X-0.650000X0.350000X-0.650000X-0.350000X0.650000X-0.350000X0.650000X0.350000X0*%
G04 APERTURE END LIST*
D10*
X94533333Y-101659580D02*
X94485714Y-101707200D01*
X94485714Y-101707200D02*
X94342857Y-101754819D01*
X94342857Y-101754819D02*
X94247619Y-101754819D01*
X94247619Y-101754819D02*
X94104762Y-101707200D01*
X94104762Y-101707200D02*
X94009524Y-101611961D01*
X94009524Y-101611961D02*
X93961905Y-101516723D01*
X93961905Y-101516723D02*
X93914286Y-101326247D01*
X93914286Y-101326247D02*
X93914286Y-101183390D01*
X93914286Y-101183390D02*
X93961905Y-100992914D01*
X93961905Y-100992914D02*
X94009524Y-100897676D01*
X94009524Y-100897676D02*
X94104762Y-100802438D01*
X94104762Y-100802438D02*
X94247619Y-100754819D01*
X94247619Y-100754819D02*
X94342857Y-100754819D01*
X94342857Y-100754819D02*
X94485714Y-100802438D01*
X94485714Y-100802438D02*
X94533333Y-100850057D01*
X95390476Y-101088152D02*
X95390476Y-101754819D01*
X95152381Y-100707200D02*
X94914286Y-101421485D01*
X94914286Y-101421485D02*
X95533333Y-101421485D01*
X95104819Y-103888094D02*
X94104819Y-103888094D01*
X94104819Y-103888094D02*
X94104819Y-103649999D01*
X94104819Y-103649999D02*
X94152438Y-103507142D01*
X94152438Y-103507142D02*
X94247676Y-103411904D01*
X94247676Y-103411904D02*
X94342914Y-103364285D01*
X94342914Y-103364285D02*
X94533390Y-103316666D01*
X94533390Y-103316666D02*
X94676247Y-103316666D01*
X94676247Y-103316666D02*
X94866723Y-103364285D01*
X94866723Y-103364285D02*
X94961961Y-103411904D01*
X94961961Y-103411904D02*
X95057200Y-103507142D01*
X95057200Y-103507142D02*
X95104819Y-103649999D01*
X95104819Y-103649999D02*
X95104819Y-103888094D01*
X94438152Y-102459523D02*
X95104819Y-102459523D01*
X94057200Y-102697618D02*
X94771485Y-102935713D01*
X94771485Y-102935713D02*
X94771485Y-102316666D01*
X83904819Y-103888094D02*
X82904819Y-103888094D01*
X82904819Y-103888094D02*
X82904819Y-103649999D01*
X82904819Y-103649999D02*
X82952438Y-103507142D01*
X82952438Y-103507142D02*
X83047676Y-103411904D01*
X83047676Y-103411904D02*
X83142914Y-103364285D01*
X83142914Y-103364285D02*
X83333390Y-103316666D01*
X83333390Y-103316666D02*
X83476247Y-103316666D01*
X83476247Y-103316666D02*
X83666723Y-103364285D01*
X83666723Y-103364285D02*
X83761961Y-103411904D01*
X83761961Y-103411904D02*
X83857200Y-103507142D01*
X83857200Y-103507142D02*
X83904819Y-103649999D01*
X83904819Y-103649999D02*
X83904819Y-103888094D01*
X83000057Y-102935713D02*
X82952438Y-102888094D01*
X82952438Y-102888094D02*
X82904819Y-102792856D01*
X82904819Y-102792856D02*
X82904819Y-102554761D01*
X82904819Y-102554761D02*
X82952438Y-102459523D01*
X82952438Y-102459523D02*
X83000057Y-102411904D01*
X83000057Y-102411904D02*
X83095295Y-102364285D01*
X83095295Y-102364285D02*
X83190533Y-102364285D01*
X83190533Y-102364285D02*
X83333390Y-102411904D01*
X83333390Y-102411904D02*
X83904819Y-102983332D01*
X83904819Y-102983332D02*
X83904819Y-102364285D01*
X83233333Y-101659580D02*
X83185714Y-101707200D01*
X83185714Y-101707200D02*
X83042857Y-101754819D01*
X83042857Y-101754819D02*
X82947619Y-101754819D01*
X82947619Y-101754819D02*
X82804762Y-101707200D01*
X82804762Y-101707200D02*
X82709524Y-101611961D01*
X82709524Y-101611961D02*
X82661905Y-101516723D01*
X82661905Y-101516723D02*
X82614286Y-101326247D01*
X82614286Y-101326247D02*
X82614286Y-101183390D01*
X82614286Y-101183390D02*
X82661905Y-100992914D01*
X82661905Y-100992914D02*
X82709524Y-100897676D01*
X82709524Y-100897676D02*
X82804762Y-100802438D01*
X82804762Y-100802438D02*
X82947619Y-100754819D01*
X82947619Y-100754819D02*
X83042857Y-100754819D01*
X83042857Y-100754819D02*
X83185714Y-100802438D01*
X83185714Y-100802438D02*
X83233333Y-100850057D01*
X83614286Y-100850057D02*
X83661905Y-100802438D01*
X83661905Y-100802438D02*
X83757143Y-100754819D01*
X83757143Y-100754819D02*
X83995238Y-100754819D01*
X83995238Y-100754819D02*
X84090476Y-100802438D01*
X84090476Y-100802438D02*
X84138095Y-100850057D01*
X84138095Y-100850057D02*
X84185714Y-100945295D01*
X84185714Y-100945295D02*
X84185714Y-101040533D01*
X84185714Y-101040533D02*
X84138095Y-101183390D01*
X84138095Y-101183390D02*
X83566667Y-101754819D01*
X83566667Y-101754819D02*
X84185714Y-101754819D01*
X101159580Y-103590476D02*
X101207200Y-103638095D01*
X101207200Y-103638095D02*
X101254819Y-103780952D01*
X101254819Y-103780952D02*
X101254819Y-103876190D01*
X101254819Y-103876190D02*
X101207200Y-104019047D01*
X101207200Y-104019047D02*
X101111961Y-104114285D01*
X101111961Y-104114285D02*
X101016723Y-104161904D01*
X101016723Y-104161904D02*
X100826247Y-104209523D01*
X100826247Y-104209523D02*
X100683390Y-104209523D01*
X100683390Y-104209523D02*
X100492914Y-104161904D01*
X100492914Y-104161904D02*
X100397676Y-104114285D01*
X100397676Y-104114285D02*
X100302438Y-104019047D01*
X100302438Y-104019047D02*
X100254819Y-103876190D01*
X100254819Y-103876190D02*
X100254819Y-103780952D01*
X100254819Y-103780952D02*
X100302438Y-103638095D01*
X100302438Y-103638095D02*
X100350057Y-103590476D01*
X101254819Y-103161904D02*
X100254819Y-103161904D01*
X100254819Y-103161904D02*
X101254819Y-102590476D01*
X101254819Y-102590476D02*
X100254819Y-102590476D01*
X101254819Y-101590476D02*
X101254819Y-102161904D01*
X101254819Y-101876190D02*
X100254819Y-101876190D01*
X100254819Y-101876190D02*
X100397676Y-101971428D01*
X100397676Y-101971428D02*
X100492914Y-102066666D01*
X100492914Y-102066666D02*
X100540533Y-102161904D01*
X77733333Y-101659580D02*
X77685714Y-101707200D01*
X77685714Y-101707200D02*
X77542857Y-101754819D01*
X77542857Y-101754819D02*
X77447619Y-101754819D01*
X77447619Y-101754819D02*
X77304762Y-101707200D01*
X77304762Y-101707200D02*
X77209524Y-101611961D01*
X77209524Y-101611961D02*
X77161905Y-101516723D01*
X77161905Y-101516723D02*
X77114286Y-101326247D01*
X77114286Y-101326247D02*
X77114286Y-101183390D01*
X77114286Y-101183390D02*
X77161905Y-100992914D01*
X77161905Y-100992914D02*
X77209524Y-100897676D01*
X77209524Y-100897676D02*
X77304762Y-100802438D01*
X77304762Y-100802438D02*
X77447619Y-100754819D01*
X77447619Y-100754819D02*
X77542857Y-100754819D01*
X77542857Y-100754819D02*
X77685714Y-100802438D01*
X77685714Y-100802438D02*
X77733333Y-100850057D01*
X78685714Y-101754819D02*
X78114286Y-101754819D01*
X78400000Y-101754819D02*
X78400000Y-100754819D01*
X78400000Y-100754819D02*
X78304762Y-100897676D01*
X78304762Y-100897676D02*
X78209524Y-100992914D01*
X78209524Y-100992914D02*
X78114286Y-101040533D01*
X78304819Y-103888094D02*
X77304819Y-103888094D01*
X77304819Y-103888094D02*
X77304819Y-103649999D01*
X77304819Y-103649999D02*
X77352438Y-103507142D01*
X77352438Y-103507142D02*
X77447676Y-103411904D01*
X77447676Y-103411904D02*
X77542914Y-103364285D01*
X77542914Y-103364285D02*
X77733390Y-103316666D01*
X77733390Y-103316666D02*
X77876247Y-103316666D01*
X77876247Y-103316666D02*
X78066723Y-103364285D01*
X78066723Y-103364285D02*
X78161961Y-103411904D01*
X78161961Y-103411904D02*
X78257200Y-103507142D01*
X78257200Y-103507142D02*
X78304819Y-103649999D01*
X78304819Y-103649999D02*
X78304819Y-103888094D01*
X78304819Y-102364285D02*
X78304819Y-102935713D01*
X78304819Y-102649999D02*
X77304819Y-102649999D01*
X77304819Y-102649999D02*
X77447676Y-102745237D01*
X77447676Y-102745237D02*
X77542914Y-102840475D01*
X77542914Y-102840475D02*
X77590533Y-102935713D01*
X89504819Y-103888094D02*
X88504819Y-103888094D01*
X88504819Y-103888094D02*
X88504819Y-103649999D01*
X88504819Y-103649999D02*
X88552438Y-103507142D01*
X88552438Y-103507142D02*
X88647676Y-103411904D01*
X88647676Y-103411904D02*
X88742914Y-103364285D01*
X88742914Y-103364285D02*
X88933390Y-103316666D01*
X88933390Y-103316666D02*
X89076247Y-103316666D01*
X89076247Y-103316666D02*
X89266723Y-103364285D01*
X89266723Y-103364285D02*
X89361961Y-103411904D01*
X89361961Y-103411904D02*
X89457200Y-103507142D01*
X89457200Y-103507142D02*
X89504819Y-103649999D01*
X89504819Y-103649999D02*
X89504819Y-103888094D01*
X88504819Y-102983332D02*
X88504819Y-102364285D01*
X88504819Y-102364285D02*
X88885771Y-102697618D01*
X88885771Y-102697618D02*
X88885771Y-102554761D01*
X88885771Y-102554761D02*
X88933390Y-102459523D01*
X88933390Y-102459523D02*
X88981009Y-102411904D01*
X88981009Y-102411904D02*
X89076247Y-102364285D01*
X89076247Y-102364285D02*
X89314342Y-102364285D01*
X89314342Y-102364285D02*
X89409580Y-102411904D01*
X89409580Y-102411904D02*
X89457200Y-102459523D01*
X89457200Y-102459523D02*
X89504819Y-102554761D01*
X89504819Y-102554761D02*
X89504819Y-102840475D01*
X89504819Y-102840475D02*
X89457200Y-102935713D01*
X89457200Y-102935713D02*
X89409580Y-102983332D01*
X88833333Y-101659580D02*
X88785714Y-101707200D01*
X88785714Y-101707200D02*
X88642857Y-101754819D01*
X88642857Y-101754819D02*
X88547619Y-101754819D01*
X88547619Y-101754819D02*
X88404762Y-101707200D01*
X88404762Y-101707200D02*
X88309524Y-101611961D01*
X88309524Y-101611961D02*
X88261905Y-101516723D01*
X88261905Y-101516723D02*
X88214286Y-101326247D01*
X88214286Y-101326247D02*
X88214286Y-101183390D01*
X88214286Y-101183390D02*
X88261905Y-100992914D01*
X88261905Y-100992914D02*
X88309524Y-100897676D01*
X88309524Y-100897676D02*
X88404762Y-100802438D01*
X88404762Y-100802438D02*
X88547619Y-100754819D01*
X88547619Y-100754819D02*
X88642857Y-100754819D01*
X88642857Y-100754819D02*
X88785714Y-100802438D01*
X88785714Y-100802438D02*
X88833333Y-100850057D01*
X89166667Y-100754819D02*
X89785714Y-100754819D01*
X89785714Y-100754819D02*
X89452381Y-101135771D01*
X89452381Y-101135771D02*
X89595238Y-101135771D01*
X89595238Y-101135771D02*
X89690476Y-101183390D01*
X89690476Y-101183390D02*
X89738095Y-101231009D01*
X89738095Y-101231009D02*
X89785714Y-101326247D01*
X89785714Y-101326247D02*
X89785714Y-101564342D01*
X89785714Y-101564342D02*
X89738095Y-101659580D01*
X89738095Y-101659580D02*
X89690476Y-101707200D01*
X89690476Y-101707200D02*
X89595238Y-101754819D01*
X89595238Y-101754819D02*
X89309524Y-101754819D01*
X89309524Y-101754819D02*
X89214286Y-101707200D01*
X89214286Y-101707200D02*
X89166667Y-101659580D01*
X72059580Y-103590476D02*
X72107200Y-103638095D01*
X72107200Y-103638095D02*
X72154819Y-103780952D01*
X72154819Y-103780952D02*
X72154819Y-103876190D01*
X72154819Y-103876190D02*
X72107200Y-104019047D01*
X72107200Y-104019047D02*
X72011961Y-104114285D01*
X72011961Y-104114285D02*
X71916723Y-104161904D01*
X71916723Y-104161904D02*
X71726247Y-104209523D01*
X71726247Y-104209523D02*
X71583390Y-104209523D01*
X71583390Y-104209523D02*
X71392914Y-104161904D01*
X71392914Y-104161904D02*
X71297676Y-104114285D01*
X71297676Y-104114285D02*
X71202438Y-104019047D01*
X71202438Y-104019047D02*
X71154819Y-103876190D01*
X71154819Y-103876190D02*
X71154819Y-103780952D01*
X71154819Y-103780952D02*
X71202438Y-103638095D01*
X71202438Y-103638095D02*
X71250057Y-103590476D01*
X72154819Y-103161904D02*
X71154819Y-103161904D01*
X71154819Y-103161904D02*
X72154819Y-102590476D01*
X72154819Y-102590476D02*
X71154819Y-102590476D01*
X71250057Y-102161904D02*
X71202438Y-102114285D01*
X71202438Y-102114285D02*
X71154819Y-102019047D01*
X71154819Y-102019047D02*
X71154819Y-101780952D01*
X71154819Y-101780952D02*
X71202438Y-101685714D01*
X71202438Y-101685714D02*
X71250057Y-101638095D01*
X71250057Y-101638095D02*
X71345295Y-101590476D01*
X71345295Y-101590476D02*
X71440533Y-101590476D01*
X71440533Y-101590476D02*
X71583390Y-101638095D01*
X71583390Y-101638095D02*
X72154819Y-102209523D01*
X72154819Y-102209523D02*
X72154819Y-101590476D01*
%TO.C,C4*%
D11*
X95692164Y-98840000D02*
X95907836Y-98840000D01*
X95692164Y-99560000D02*
X95907836Y-99560000D01*
%TO.C,D4*%
X93425000Y-104425000D02*
X93875000Y-104875000D01*
X93750000Y-100450000D02*
X95550000Y-100450000D01*
X93750000Y-105850000D02*
X95550000Y-105850000D01*
%TO.C,D2*%
X82225000Y-104425000D02*
X82675000Y-104875000D01*
X82550000Y-100450000D02*
X84350000Y-100450000D01*
X82550000Y-105850000D02*
X84350000Y-105850000D01*
%TO.C,C2*%
X84492164Y-98840000D02*
X84707836Y-98840000D01*
X84492164Y-99560000D02*
X84707836Y-99560000D01*
%TO.C,CN1*%
X99015000Y-100290000D02*
X99015000Y-101340000D01*
X99015000Y-104460000D02*
X98025000Y-104460000D01*
X99015000Y-105510000D02*
X99015000Y-104460000D01*
X101515000Y-100290000D02*
X99015000Y-100290000D01*
X101515000Y-105510000D02*
X99015000Y-105510000D01*
X103485000Y-104340000D02*
X103485000Y-101460000D01*
%TO.C,C1*%
X78892164Y-98840000D02*
X79107836Y-98840000D01*
X78892164Y-99560000D02*
X79107836Y-99560000D01*
%TO.C,D1*%
X76625000Y-104425000D02*
X77075000Y-104875000D01*
X76950000Y-100450000D02*
X78750000Y-100450000D01*
X76950000Y-105850000D02*
X78750000Y-105850000D01*
%TO.C,D3*%
X87825000Y-104425000D02*
X88275000Y-104875000D01*
X88150000Y-100450000D02*
X89950000Y-100450000D01*
X88150000Y-105850000D02*
X89950000Y-105850000D01*
%TO.C,C3*%
X90092164Y-98840000D02*
X90307836Y-98840000D01*
X90092164Y-99560000D02*
X90307836Y-99560000D01*
%TO.C,CN2*%
X69015000Y-101460000D02*
X69015000Y-104340000D01*
X70985000Y-100290000D02*
X73485000Y-100290000D01*
X70985000Y-105510000D02*
X73485000Y-105510000D01*
X73485000Y-100290000D02*
X73485000Y-101340000D01*
X73485000Y-101340000D02*
X74475000Y-101340000D01*
X73485000Y-105510000D02*
X73485000Y-104460000D01*
%TD*%
%LPC*%
D12*
%TO.C,C4*%
X95320000Y-99200000D03*
X96280000Y-99200000D03*
%TD*%
D13*
%TO.C,D4*%
X96300000Y-100700000D03*
X93000000Y-100700000D03*
X93000000Y-105600000D03*
X96300000Y-105600000D03*
%TD*%
%TO.C,D2*%
X85100000Y-100700000D03*
X81800000Y-100700000D03*
X81800000Y-105600000D03*
X85100000Y-105600000D03*
%TD*%
D12*
%TO.C,C2*%
X84120000Y-99200000D03*
X85080000Y-99200000D03*
%TD*%
D14*
%TO.C,*%
X67500000Y-104900000D03*
%TD*%
D15*
%TO.C,CN1*%
X98800000Y-103900000D03*
X98800000Y-102900000D03*
X98800000Y-101900000D03*
D16*
X102675000Y-105200000D03*
X102675000Y-100600000D03*
%TD*%
D14*
%TO.C,*%
X105000000Y-105000000D03*
%TD*%
D12*
%TO.C,C1*%
X78520000Y-99200000D03*
X79480000Y-99200000D03*
%TD*%
D13*
%TO.C,D1*%
X79500000Y-100700000D03*
X76200000Y-100700000D03*
X76200000Y-105600000D03*
X79500000Y-105600000D03*
%TD*%
D14*
%TO.C,*%
X67500000Y-102800000D03*
%TD*%
D13*
%TO.C,D3*%
X90700000Y-100700000D03*
X87400000Y-100700000D03*
X87400000Y-105600000D03*
X90700000Y-105600000D03*
%TD*%
D14*
%TO.C,*%
X105000000Y-100800000D03*
%TD*%
D12*
%TO.C,C3*%
X89720000Y-99200000D03*
X90680000Y-99200000D03*
%TD*%
D14*
%TO.C,*%
X105000000Y-102900000D03*
%TD*%
%TO.C,*%
X67500000Y-100700000D03*
%TD*%
D17*
%TO.C,CN2*%
X73700000Y-101900000D03*
X73700000Y-102900000D03*
X73700000Y-103900000D03*
D18*
X69825000Y-100600000D03*
X69825000Y-105200000D03*
%TD*%
%LPD*%
M02*
