%TF.GenerationSoftware,KiCad,Pcbnew,10.0.6*%
%TF.CreationDate,2026-09-28T22:00:05+03:00*%
%TF.ProjectId,OpenLED,4f70656e-4c45-4442-9e6b-696361645f70,rev?*%
%TF.SameCoordinates,Original*%
%TF.FileFunction,Copper,L2,Bot*%
%TF.FilePolarity,Positive*%
%FSLAX46Y46*%
G04 Gerber Fmt 4.6, Leading zero omitted, Abs format (unit mm)*
G04 Created by KiCad (PCBNEW 10.0.6) date 2026-09-28 22:00:05*
%MOMM*%
%LPD*%
G01*
G04 APERTURE LIST*
%TA.AperFunction,ViaPad*%
%ADD10C,0.600000*%
%TD*%
%TA.AperFunction,Conductor*%
%ADD11C,0.200000*%
%TD*%
%TA.AperFunction,Conductor*%
%ADD12C,0.300000*%
%TD*%
G04 APERTURE END LIST*
D10*
%TO.N,GND*%
X79500000Y-103400000D03*
X86300000Y-99700000D03*
X69400000Y-103800000D03*
X80600000Y-100000000D03*
X91900000Y-99800000D03*
X74900000Y-99700000D03*
X76000000Y-103900000D03*
X69000000Y-99500000D03*
X101600000Y-100500000D03*
%TO.N,Net-(D3-DOUT)*%
X94850000Y-105250000D03*
X88700000Y-100700000D03*
%TO.N,Net-(D2-DOUT)*%
X83000000Y-100700000D03*
X89225000Y-105225000D03*
%TO.N,/DOUT*%
X96500000Y-102800000D03*
X94300000Y-100700000D03*
%TO.N,Net-(D1-DOUT)*%
X83537500Y-105237500D03*
X77300000Y-100700000D03*
%TD*%
%TO.N,GND*%
D11*
X76100000Y-103900000D02*
X76000000Y-103900000D01*
%TO.N,Net-(D3-DOUT)*%
D12*
X90300000Y-100700000D02*
X88700000Y-100700000D01*
X94850000Y-105250000D02*
X90300000Y-100700000D01*
%TO.N,Net-(D2-DOUT)*%
X89225000Y-105225000D02*
X84700000Y-100700000D01*
X84700000Y-100700000D02*
X83000000Y-100700000D01*
%TO.N,/DOUT*%
X96400000Y-102800000D02*
X94300000Y-100700000D01*
X96500000Y-102800000D02*
X96400000Y-102800000D01*
%TO.N,Net-(D1-DOUT)*%
X83537500Y-105237500D02*
X79000000Y-100700000D01*
X79000000Y-100700000D02*
X77300000Y-100700000D01*
%TD*%
%TA.AperFunction,Conductor*%
%TO.N,GND*%
G36*
X105758691Y-99119407D02*
G01*
X105794655Y-99168907D01*
X105799500Y-99199500D01*
X105799500Y-106000500D01*
X105780593Y-106058691D01*
X105731093Y-106094655D01*
X105700500Y-106099500D01*
X66799500Y-106099500D01*
X66741309Y-106080593D01*
X66705345Y-106031093D01*
X66700500Y-106000500D01*
X66700500Y-100634108D01*
X76799500Y-100634108D01*
X76799500Y-100765892D01*
X76829579Y-100878151D01*
X76833609Y-100893190D01*
X76899496Y-101007309D01*
X76899498Y-101007311D01*
X76899500Y-101007314D01*
X76992686Y-101100500D01*
X76992688Y-101100501D01*
X76992690Y-101100503D01*
X77106810Y-101166390D01*
X77106808Y-101166390D01*
X77106812Y-101166391D01*
X77106814Y-101166392D01*
X77234108Y-101200500D01*
X77234110Y-101200500D01*
X77365890Y-101200500D01*
X77365892Y-101200500D01*
X77493186Y-101166392D01*
X77493188Y-101166390D01*
X77493190Y-101166390D01*
X77607309Y-101100503D01*
X77607309Y-101100502D01*
X77607314Y-101100500D01*
X77628319Y-101079494D01*
X77682834Y-101051719D01*
X77698321Y-101050500D01*
X78813810Y-101050500D01*
X78872001Y-101069407D01*
X78883814Y-101079496D01*
X83008004Y-105203686D01*
X83035781Y-105258203D01*
X83037000Y-105273690D01*
X83037000Y-105303392D01*
X83067079Y-105415651D01*
X83071109Y-105430690D01*
X83136996Y-105544809D01*
X83136998Y-105544811D01*
X83137000Y-105544814D01*
X83230186Y-105638000D01*
X83230188Y-105638001D01*
X83230190Y-105638003D01*
X83344310Y-105703890D01*
X83344308Y-105703890D01*
X83344312Y-105703891D01*
X83344314Y-105703892D01*
X83471608Y-105738000D01*
X83471610Y-105738000D01*
X83603390Y-105738000D01*
X83603392Y-105738000D01*
X83730686Y-105703892D01*
X83730688Y-105703890D01*
X83730690Y-105703890D01*
X83844809Y-105638003D01*
X83844809Y-105638002D01*
X83844814Y-105638000D01*
X83938000Y-105544814D01*
X84003892Y-105430686D01*
X84038000Y-105303392D01*
X84038000Y-105171608D01*
X84003892Y-105044314D01*
X84003890Y-105044311D01*
X84003890Y-105044309D01*
X83938003Y-104930190D01*
X83938001Y-104930188D01*
X83938000Y-104930186D01*
X83844814Y-104837000D01*
X83844811Y-104836998D01*
X83844809Y-104836996D01*
X83730689Y-104771109D01*
X83730691Y-104771109D01*
X83681299Y-104757875D01*
X83603392Y-104737000D01*
X83603390Y-104737000D01*
X83573690Y-104737000D01*
X83515499Y-104718093D01*
X83503686Y-104708004D01*
X81529790Y-102734108D01*
X79429790Y-100634108D01*
X82499500Y-100634108D01*
X82499500Y-100765892D01*
X82529579Y-100878151D01*
X82533609Y-100893190D01*
X82599496Y-101007309D01*
X82599498Y-101007311D01*
X82599500Y-101007314D01*
X82692686Y-101100500D01*
X82692688Y-101100501D01*
X82692690Y-101100503D01*
X82806810Y-101166390D01*
X82806808Y-101166390D01*
X82806812Y-101166391D01*
X82806814Y-101166392D01*
X82934108Y-101200500D01*
X82934110Y-101200500D01*
X83065890Y-101200500D01*
X83065892Y-101200500D01*
X83193186Y-101166392D01*
X83193188Y-101166390D01*
X83193190Y-101166390D01*
X83307309Y-101100503D01*
X83307309Y-101100502D01*
X83307314Y-101100500D01*
X83328319Y-101079494D01*
X83382834Y-101051719D01*
X83398321Y-101050500D01*
X84513810Y-101050500D01*
X84572001Y-101069407D01*
X84583814Y-101079496D01*
X88695504Y-105191185D01*
X88723281Y-105245702D01*
X88724500Y-105261189D01*
X88724500Y-105290892D01*
X88731199Y-105315892D01*
X88758609Y-105418190D01*
X88824496Y-105532309D01*
X88824498Y-105532311D01*
X88824500Y-105532314D01*
X88917686Y-105625500D01*
X88917688Y-105625501D01*
X88917690Y-105625503D01*
X89031810Y-105691390D01*
X89031808Y-105691390D01*
X89031812Y-105691391D01*
X89031814Y-105691392D01*
X89159108Y-105725500D01*
X89159110Y-105725500D01*
X89290890Y-105725500D01*
X89290892Y-105725500D01*
X89418186Y-105691392D01*
X89418188Y-105691390D01*
X89418190Y-105691390D01*
X89532309Y-105625503D01*
X89532309Y-105625502D01*
X89532314Y-105625500D01*
X89625500Y-105532314D01*
X89691392Y-105418186D01*
X89725500Y-105290892D01*
X89725500Y-105159108D01*
X89691392Y-105031814D01*
X89691390Y-105031811D01*
X89691390Y-105031809D01*
X89625503Y-104917690D01*
X89625501Y-104917688D01*
X89625500Y-104917686D01*
X89532314Y-104824500D01*
X89532311Y-104824498D01*
X89532309Y-104824496D01*
X89418189Y-104758609D01*
X89418191Y-104758609D01*
X89368799Y-104745375D01*
X89290892Y-104724500D01*
X89290890Y-104724500D01*
X89261189Y-104724500D01*
X89202998Y-104705593D01*
X89191185Y-104695504D01*
X87102490Y-102606809D01*
X85129790Y-100634108D01*
X88199500Y-100634108D01*
X88199500Y-100765892D01*
X88229579Y-100878151D01*
X88233609Y-100893190D01*
X88299496Y-101007309D01*
X88299498Y-101007311D01*
X88299500Y-101007314D01*
X88392686Y-101100500D01*
X88392688Y-101100501D01*
X88392690Y-101100503D01*
X88506810Y-101166390D01*
X88506808Y-101166390D01*
X88506812Y-101166391D01*
X88506814Y-101166392D01*
X88634108Y-101200500D01*
X88634110Y-101200500D01*
X88765890Y-101200500D01*
X88765892Y-101200500D01*
X88893186Y-101166392D01*
X88893188Y-101166390D01*
X88893190Y-101166390D01*
X89007309Y-101100503D01*
X89007309Y-101100502D01*
X89007314Y-101100500D01*
X89028319Y-101079494D01*
X89082834Y-101051719D01*
X89098321Y-101050500D01*
X90113810Y-101050500D01*
X90172001Y-101069407D01*
X90183814Y-101079496D01*
X94320504Y-105216186D01*
X94348281Y-105270703D01*
X94349500Y-105286190D01*
X94349500Y-105315892D01*
X94376909Y-105418186D01*
X94383609Y-105443190D01*
X94449496Y-105557309D01*
X94449498Y-105557311D01*
X94449500Y-105557314D01*
X94542686Y-105650500D01*
X94542688Y-105650501D01*
X94542690Y-105650503D01*
X94656810Y-105716390D01*
X94656808Y-105716390D01*
X94656812Y-105716391D01*
X94656814Y-105716392D01*
X94784108Y-105750500D01*
X94784110Y-105750500D01*
X94915890Y-105750500D01*
X94915892Y-105750500D01*
X95043186Y-105716392D01*
X95043188Y-105716390D01*
X95043190Y-105716390D01*
X95157309Y-105650503D01*
X95157309Y-105650502D01*
X95157314Y-105650500D01*
X95250500Y-105557314D01*
X95316392Y-105443186D01*
X95350500Y-105315892D01*
X95350500Y-105184108D01*
X95316392Y-105056814D01*
X95316390Y-105056811D01*
X95316390Y-105056809D01*
X95250503Y-104942690D01*
X95250501Y-104942688D01*
X95250500Y-104942686D01*
X95157314Y-104849500D01*
X95157311Y-104849498D01*
X95157309Y-104849496D01*
X95043189Y-104783609D01*
X95043191Y-104783609D01*
X94993799Y-104770375D01*
X94915892Y-104749500D01*
X94915890Y-104749500D01*
X94886190Y-104749500D01*
X94827999Y-104730593D01*
X94816186Y-104720504D01*
X92829790Y-102734108D01*
X90729790Y-100634108D01*
X93799500Y-100634108D01*
X93799500Y-100765892D01*
X93829579Y-100878151D01*
X93833609Y-100893190D01*
X93899496Y-101007309D01*
X93899498Y-101007311D01*
X93899500Y-101007314D01*
X93992686Y-101100500D01*
X93992688Y-101100501D01*
X93992690Y-101100503D01*
X94106810Y-101166390D01*
X94106808Y-101166390D01*
X94106812Y-101166391D01*
X94106814Y-101166392D01*
X94234108Y-101200500D01*
X94263810Y-101200500D01*
X94322001Y-101219407D01*
X94333814Y-101229496D01*
X95991463Y-102887145D01*
X96017085Y-102931525D01*
X96033607Y-102993185D01*
X96033609Y-102993189D01*
X96099496Y-103107309D01*
X96099498Y-103107311D01*
X96099500Y-103107314D01*
X96192686Y-103200500D01*
X96192688Y-103200501D01*
X96192690Y-103200503D01*
X96306810Y-103266390D01*
X96306808Y-103266390D01*
X96306812Y-103266391D01*
X96306814Y-103266392D01*
X96434108Y-103300500D01*
X96434110Y-103300500D01*
X96565890Y-103300500D01*
X96565892Y-103300500D01*
X96693186Y-103266392D01*
X96693188Y-103266390D01*
X96693190Y-103266390D01*
X96807309Y-103200503D01*
X96807309Y-103200502D01*
X96807314Y-103200500D01*
X96900500Y-103107314D01*
X96966392Y-102993186D01*
X97000500Y-102865892D01*
X97000500Y-102734108D01*
X96966392Y-102606814D01*
X96966390Y-102606811D01*
X96966390Y-102606809D01*
X96900503Y-102492690D01*
X96900501Y-102492688D01*
X96900500Y-102492686D01*
X96807314Y-102399500D01*
X96807311Y-102399498D01*
X96807309Y-102399496D01*
X96693189Y-102333609D01*
X96693191Y-102333609D01*
X96643799Y-102320375D01*
X96565892Y-102299500D01*
X96436190Y-102299500D01*
X96377999Y-102280593D01*
X96366186Y-102270504D01*
X94829496Y-100733814D01*
X94801719Y-100679297D01*
X94800500Y-100663810D01*
X94800500Y-100634109D01*
X94800500Y-100634108D01*
X94766392Y-100506814D01*
X94766390Y-100506811D01*
X94766390Y-100506809D01*
X94700503Y-100392690D01*
X94700501Y-100392688D01*
X94700500Y-100392686D01*
X94607314Y-100299500D01*
X94607311Y-100299498D01*
X94607309Y-100299496D01*
X94493189Y-100233609D01*
X94493191Y-100233609D01*
X94443799Y-100220375D01*
X94365892Y-100199500D01*
X94234108Y-100199500D01*
X94156200Y-100220375D01*
X94106809Y-100233609D01*
X93992690Y-100299496D01*
X93899496Y-100392690D01*
X93833609Y-100506809D01*
X93833608Y-100506814D01*
X93799500Y-100634108D01*
X90729790Y-100634108D01*
X90515212Y-100419530D01*
X90435288Y-100373386D01*
X90346144Y-100349500D01*
X90346142Y-100349500D01*
X89098321Y-100349500D01*
X89040130Y-100330593D01*
X89028323Y-100320509D01*
X89007314Y-100299500D01*
X89007311Y-100299498D01*
X89007309Y-100299496D01*
X88893189Y-100233609D01*
X88893191Y-100233609D01*
X88843799Y-100220375D01*
X88765892Y-100199500D01*
X88634108Y-100199500D01*
X88556200Y-100220375D01*
X88506809Y-100233609D01*
X88392690Y-100299496D01*
X88299496Y-100392690D01*
X88233609Y-100506809D01*
X88233608Y-100506814D01*
X88199500Y-100634108D01*
X85129790Y-100634108D01*
X84915212Y-100419530D01*
X84835288Y-100373386D01*
X84746144Y-100349500D01*
X84746142Y-100349500D01*
X83398321Y-100349500D01*
X83340130Y-100330593D01*
X83328323Y-100320509D01*
X83307314Y-100299500D01*
X83307311Y-100299498D01*
X83307309Y-100299496D01*
X83193189Y-100233609D01*
X83193191Y-100233609D01*
X83143799Y-100220375D01*
X83065892Y-100199500D01*
X82934108Y-100199500D01*
X82856200Y-100220375D01*
X82806809Y-100233609D01*
X82692690Y-100299496D01*
X82599496Y-100392690D01*
X82533609Y-100506809D01*
X82533608Y-100506814D01*
X82499500Y-100634108D01*
X79429790Y-100634108D01*
X79215212Y-100419530D01*
X79135288Y-100373386D01*
X79046144Y-100349500D01*
X79046142Y-100349500D01*
X77698321Y-100349500D01*
X77640130Y-100330593D01*
X77628323Y-100320509D01*
X77607314Y-100299500D01*
X77607311Y-100299498D01*
X77607309Y-100299496D01*
X77493189Y-100233609D01*
X77493191Y-100233609D01*
X77443799Y-100220375D01*
X77365892Y-100199500D01*
X77234108Y-100199500D01*
X77156200Y-100220375D01*
X77106809Y-100233609D01*
X76992690Y-100299496D01*
X76899496Y-100392690D01*
X76833609Y-100506809D01*
X76833608Y-100506814D01*
X76799500Y-100634108D01*
X66700500Y-100634108D01*
X66700500Y-99199500D01*
X66719407Y-99141309D01*
X66768907Y-99105345D01*
X66799500Y-99100500D01*
X105700500Y-99100500D01*
X105758691Y-99119407D01*
G37*
%TD.AperFunction*%
%TD*%
M02*
