%TF.GenerationSoftware,KiCad,Pcbnew,10.0.6*%
%TF.CreationDate,2026-09-28T22:00:05+03:00*%
%TF.ProjectId,OpenLED,4f70656e-4c45-4442-9e6b-696361645f70,rev?*%
%TF.SameCoordinates,Original*%
%TF.FileFunction,Legend,Bot*%
%TF.FilePolarity,Positive*%
%FSLAX46Y46*%
G04 Gerber Fmt 4.6, Leading zero omitted, Abs format (unit mm)*
G04 Created by KiCad (PCBNEW 10.0.6) date 2026-09-28 22:00:05*
%MOMM*%
%LPD*%
G01*
G04 APERTURE LIST*
%ADD10C,0.100000*%
G04 APERTURE END LIST*
D10*
X68919925Y-100172419D02*
X69396115Y-100172419D01*
X69396115Y-100172419D02*
X69443734Y-100648609D01*
X69443734Y-100648609D02*
X69396115Y-100600990D01*
X69396115Y-100600990D02*
X69300877Y-100553371D01*
X69300877Y-100553371D02*
X69062782Y-100553371D01*
X69062782Y-100553371D02*
X68967544Y-100600990D01*
X68967544Y-100600990D02*
X68919925Y-100648609D01*
X68919925Y-100648609D02*
X68872306Y-100743847D01*
X68872306Y-100743847D02*
X68872306Y-100981942D01*
X68872306Y-100981942D02*
X68919925Y-101077180D01*
X68919925Y-101077180D02*
X68967544Y-101124800D01*
X68967544Y-101124800D02*
X69062782Y-101172419D01*
X69062782Y-101172419D02*
X69300877Y-101172419D01*
X69300877Y-101172419D02*
X69396115Y-101124800D01*
X69396115Y-101124800D02*
X69443734Y-101077180D01*
X68586591Y-100172419D02*
X68253258Y-101172419D01*
X68253258Y-101172419D02*
X67919925Y-100172419D01*
X67586591Y-100791466D02*
X66824687Y-100791466D01*
X67205639Y-101172419D02*
X67205639Y-100410514D01*
X69396115Y-103272419D02*
X69396115Y-102272419D01*
X69396115Y-102272419D02*
X69158020Y-102272419D01*
X69158020Y-102272419D02*
X69015163Y-102320038D01*
X69015163Y-102320038D02*
X68919925Y-102415276D01*
X68919925Y-102415276D02*
X68872306Y-102510514D01*
X68872306Y-102510514D02*
X68824687Y-102700990D01*
X68824687Y-102700990D02*
X68824687Y-102843847D01*
X68824687Y-102843847D02*
X68872306Y-103034323D01*
X68872306Y-103034323D02*
X68919925Y-103129561D01*
X68919925Y-103129561D02*
X69015163Y-103224800D01*
X69015163Y-103224800D02*
X69158020Y-103272419D01*
X69158020Y-103272419D02*
X69396115Y-103272419D01*
X68396115Y-103272419D02*
X68396115Y-102272419D01*
X67919925Y-103272419D02*
X67919925Y-102272419D01*
X67919925Y-102272419D02*
X67348497Y-103272419D01*
X67348497Y-103272419D02*
X67348497Y-102272419D01*
X68872306Y-104420038D02*
X68967544Y-104372419D01*
X68967544Y-104372419D02*
X69110401Y-104372419D01*
X69110401Y-104372419D02*
X69253258Y-104420038D01*
X69253258Y-104420038D02*
X69348496Y-104515276D01*
X69348496Y-104515276D02*
X69396115Y-104610514D01*
X69396115Y-104610514D02*
X69443734Y-104800990D01*
X69443734Y-104800990D02*
X69443734Y-104943847D01*
X69443734Y-104943847D02*
X69396115Y-105134323D01*
X69396115Y-105134323D02*
X69348496Y-105229561D01*
X69348496Y-105229561D02*
X69253258Y-105324800D01*
X69253258Y-105324800D02*
X69110401Y-105372419D01*
X69110401Y-105372419D02*
X69015163Y-105372419D01*
X69015163Y-105372419D02*
X68872306Y-105324800D01*
X68872306Y-105324800D02*
X68824687Y-105277180D01*
X68824687Y-105277180D02*
X68824687Y-104943847D01*
X68824687Y-104943847D02*
X69015163Y-104943847D01*
X68396115Y-105372419D02*
X68396115Y-104372419D01*
X68396115Y-104372419D02*
X67824687Y-105372419D01*
X67824687Y-105372419D02*
X67824687Y-104372419D01*
X67348496Y-105372419D02*
X67348496Y-104372419D01*
X67348496Y-104372419D02*
X67110401Y-104372419D01*
X67110401Y-104372419D02*
X66967544Y-104420038D01*
X66967544Y-104420038D02*
X66872306Y-104515276D01*
X66872306Y-104515276D02*
X66824687Y-104610514D01*
X66824687Y-104610514D02*
X66777068Y-104800990D01*
X66777068Y-104800990D02*
X66777068Y-104943847D01*
X66777068Y-104943847D02*
X66824687Y-105134323D01*
X66824687Y-105134323D02*
X66872306Y-105229561D01*
X66872306Y-105229561D02*
X66967544Y-105324800D01*
X66967544Y-105324800D02*
X67110401Y-105372419D01*
X67110401Y-105372419D02*
X67348496Y-105372419D01*
X105019925Y-100172419D02*
X105496115Y-100172419D01*
X105496115Y-100172419D02*
X105543734Y-100648609D01*
X105543734Y-100648609D02*
X105496115Y-100600990D01*
X105496115Y-100600990D02*
X105400877Y-100553371D01*
X105400877Y-100553371D02*
X105162782Y-100553371D01*
X105162782Y-100553371D02*
X105067544Y-100600990D01*
X105067544Y-100600990D02*
X105019925Y-100648609D01*
X105019925Y-100648609D02*
X104972306Y-100743847D01*
X104972306Y-100743847D02*
X104972306Y-100981942D01*
X104972306Y-100981942D02*
X105019925Y-101077180D01*
X105019925Y-101077180D02*
X105067544Y-101124800D01*
X105067544Y-101124800D02*
X105162782Y-101172419D01*
X105162782Y-101172419D02*
X105400877Y-101172419D01*
X105400877Y-101172419D02*
X105496115Y-101124800D01*
X105496115Y-101124800D02*
X105543734Y-101077180D01*
X104686591Y-100172419D02*
X104353258Y-101172419D01*
X104353258Y-101172419D02*
X104019925Y-100172419D01*
X103686591Y-100791466D02*
X102924687Y-100791466D01*
X103305639Y-101172419D02*
X103305639Y-100410514D01*
X105496115Y-103272419D02*
X105496115Y-102272419D01*
X105496115Y-102272419D02*
X105258020Y-102272419D01*
X105258020Y-102272419D02*
X105115163Y-102320038D01*
X105115163Y-102320038D02*
X105019925Y-102415276D01*
X105019925Y-102415276D02*
X104972306Y-102510514D01*
X104972306Y-102510514D02*
X104924687Y-102700990D01*
X104924687Y-102700990D02*
X104924687Y-102843847D01*
X104924687Y-102843847D02*
X104972306Y-103034323D01*
X104972306Y-103034323D02*
X105019925Y-103129561D01*
X105019925Y-103129561D02*
X105115163Y-103224800D01*
X105115163Y-103224800D02*
X105258020Y-103272419D01*
X105258020Y-103272419D02*
X105496115Y-103272419D01*
X104305639Y-102272419D02*
X104115163Y-102272419D01*
X104115163Y-102272419D02*
X104019925Y-102320038D01*
X104019925Y-102320038D02*
X103924687Y-102415276D01*
X103924687Y-102415276D02*
X103877068Y-102605752D01*
X103877068Y-102605752D02*
X103877068Y-102939085D01*
X103877068Y-102939085D02*
X103924687Y-103129561D01*
X103924687Y-103129561D02*
X104019925Y-103224800D01*
X104019925Y-103224800D02*
X104115163Y-103272419D01*
X104115163Y-103272419D02*
X104305639Y-103272419D01*
X104305639Y-103272419D02*
X104400877Y-103224800D01*
X104400877Y-103224800D02*
X104496115Y-103129561D01*
X104496115Y-103129561D02*
X104543734Y-102939085D01*
X104543734Y-102939085D02*
X104543734Y-102605752D01*
X104543734Y-102605752D02*
X104496115Y-102415276D01*
X104496115Y-102415276D02*
X104400877Y-102320038D01*
X104400877Y-102320038D02*
X104305639Y-102272419D01*
X103448496Y-102272419D02*
X103448496Y-103081942D01*
X103448496Y-103081942D02*
X103400877Y-103177180D01*
X103400877Y-103177180D02*
X103353258Y-103224800D01*
X103353258Y-103224800D02*
X103258020Y-103272419D01*
X103258020Y-103272419D02*
X103067544Y-103272419D01*
X103067544Y-103272419D02*
X102972306Y-103224800D01*
X102972306Y-103224800D02*
X102924687Y-103177180D01*
X102924687Y-103177180D02*
X102877068Y-103081942D01*
X102877068Y-103081942D02*
X102877068Y-102272419D01*
X102543734Y-102272419D02*
X101972306Y-102272419D01*
X102258020Y-103272419D02*
X102258020Y-102272419D01*
X104972306Y-104420038D02*
X105067544Y-104372419D01*
X105067544Y-104372419D02*
X105210401Y-104372419D01*
X105210401Y-104372419D02*
X105353258Y-104420038D01*
X105353258Y-104420038D02*
X105448496Y-104515276D01*
X105448496Y-104515276D02*
X105496115Y-104610514D01*
X105496115Y-104610514D02*
X105543734Y-104800990D01*
X105543734Y-104800990D02*
X105543734Y-104943847D01*
X105543734Y-104943847D02*
X105496115Y-105134323D01*
X105496115Y-105134323D02*
X105448496Y-105229561D01*
X105448496Y-105229561D02*
X105353258Y-105324800D01*
X105353258Y-105324800D02*
X105210401Y-105372419D01*
X105210401Y-105372419D02*
X105115163Y-105372419D01*
X105115163Y-105372419D02*
X104972306Y-105324800D01*
X104972306Y-105324800D02*
X104924687Y-105277180D01*
X104924687Y-105277180D02*
X104924687Y-104943847D01*
X104924687Y-104943847D02*
X105115163Y-104943847D01*
X104496115Y-105372419D02*
X104496115Y-104372419D01*
X104496115Y-104372419D02*
X103924687Y-105372419D01*
X103924687Y-105372419D02*
X103924687Y-104372419D01*
X103448496Y-105372419D02*
X103448496Y-104372419D01*
X103448496Y-104372419D02*
X103210401Y-104372419D01*
X103210401Y-104372419D02*
X103067544Y-104420038D01*
X103067544Y-104420038D02*
X102972306Y-104515276D01*
X102972306Y-104515276D02*
X102924687Y-104610514D01*
X102924687Y-104610514D02*
X102877068Y-104800990D01*
X102877068Y-104800990D02*
X102877068Y-104943847D01*
X102877068Y-104943847D02*
X102924687Y-105134323D01*
X102924687Y-105134323D02*
X102972306Y-105229561D01*
X102972306Y-105229561D02*
X103067544Y-105324800D01*
X103067544Y-105324800D02*
X103210401Y-105372419D01*
X103210401Y-105372419D02*
X103448496Y-105372419D01*
%LPC*%
%LPD*%
M02*
