%TF.GenerationSoftware,KiCad,Pcbnew,10.0.6*%
%TF.CreationDate,2026-09-28T21:58:27+03:00*%
%TF.ProjectId,OpenLED,4f70656e-4c45-4442-9e6b-696361645f70,rev?*%
%TF.SameCoordinates,Original*%
%TF.FileFunction,Legend,Top*%
%TF.FilePolarity,Positive*%
%FSLAX46Y46*%
G04 Gerber Fmt 4.6, Leading zero omitted, Abs format (unit mm)*
G04 Created by KiCad (PCBNEW 10.0.6) date 2026-09-28 21:58:27*
%MOMM*%
%LPD*%
G01*
G04 APERTURE LIST*
G04 Aperture macros list*
%AMRoundRect*
0 Rectangle with rounded corners*
0 $1 Rounding radius*
0 $2 $3 $4 $5 $6 $7 $8 $9 X,Y pos of 4 corners*
0 Add a 4 corners polygon primitive as box body*
4,1,4,$2,$3,$4,$5,$6,$7,$8,$9,$2,$3,0*
0 Add four circle primitives for the rounded corners*
1,1,$1+$1,$2,$3*
1,1,$1+$1,$4,$5*
1,1,$1+$1,$6,$7*
1,1,$1+$1,$8,$9*
0 Add four rect primitives between the rounded corners*
20,1,$1+$1,$2,$3,$4,$5,0*
20,1,$1+$1,$4,$5,$6,$7,0*
20,1,$1+$1,$6,$7,$8,$9,0*
20,1,$1+$1,$8,$9,$2,$3,0*%
G04 Aperture macros list end*
%ADD10C,0.150000*%
%ADD11C,0.120000*%
%ADD12RoundRect,0.250000X-0.500000X-0.500000X0.500000X-0.500000X0.500000X0.500000X-0.500000X0.500000X0*%
%ADD13RoundRect,0.090000X-0.360000X0.660000X-0.360000X-0.660000X0.360000X-0.660000X0.360000X0.660000X0*%
%ADD14RoundRect,0.140000X0.170000X-0.140000X0.170000X0.140000X-0.170000X0.140000X-0.170000X-0.140000X0*%
%ADD15RoundRect,0.150000X-0.625000X0.150000X-0.625000X-0.150000X0.625000X-0.150000X0.625000X0.150000X0*%
%ADD16RoundRect,0.250000X-0.650000X0.350000X-0.650000X-0.350000X0.650000X-0.350000X0.650000X0.350000X0*%
%ADD17RoundRect,0.150000X0.625000X-0.150000X0.625000X0.150000X-0.625000X0.150000X-0.625000X-0.150000X0*%
%ADD18RoundRect,0.250000X0.650000X-0.350000X0.650000X0.350000X-0.650000X0.350000X-0.650000X-0.350000X0*%
G04 APERTURE END LIST*
D10*
X90404819Y-137908094D02*
X89404819Y-137908094D01*
X89404819Y-137908094D02*
X89404819Y-137669999D01*
X89404819Y-137669999D02*
X89452438Y-137527142D01*
X89452438Y-137527142D02*
X89547676Y-137431904D01*
X89547676Y-137431904D02*
X89642914Y-137384285D01*
X89642914Y-137384285D02*
X89833390Y-137336666D01*
X89833390Y-137336666D02*
X89976247Y-137336666D01*
X89976247Y-137336666D02*
X90166723Y-137384285D01*
X90166723Y-137384285D02*
X90261961Y-137431904D01*
X90261961Y-137431904D02*
X90357200Y-137527142D01*
X90357200Y-137527142D02*
X90404819Y-137669999D01*
X90404819Y-137669999D02*
X90404819Y-137908094D01*
X89404819Y-137003332D02*
X89404819Y-136384285D01*
X89404819Y-136384285D02*
X89785771Y-136717618D01*
X89785771Y-136717618D02*
X89785771Y-136574761D01*
X89785771Y-136574761D02*
X89833390Y-136479523D01*
X89833390Y-136479523D02*
X89881009Y-136431904D01*
X89881009Y-136431904D02*
X89976247Y-136384285D01*
X89976247Y-136384285D02*
X90214342Y-136384285D01*
X90214342Y-136384285D02*
X90309580Y-136431904D01*
X90309580Y-136431904D02*
X90357200Y-136479523D01*
X90357200Y-136479523D02*
X90404819Y-136574761D01*
X90404819Y-136574761D02*
X90404819Y-136860475D01*
X90404819Y-136860475D02*
X90357200Y-136955713D01*
X90357200Y-136955713D02*
X90309580Y-137003332D01*
X77404819Y-137908094D02*
X76404819Y-137908094D01*
X76404819Y-137908094D02*
X76404819Y-137669999D01*
X76404819Y-137669999D02*
X76452438Y-137527142D01*
X76452438Y-137527142D02*
X76547676Y-137431904D01*
X76547676Y-137431904D02*
X76642914Y-137384285D01*
X76642914Y-137384285D02*
X76833390Y-137336666D01*
X76833390Y-137336666D02*
X76976247Y-137336666D01*
X76976247Y-137336666D02*
X77166723Y-137384285D01*
X77166723Y-137384285D02*
X77261961Y-137431904D01*
X77261961Y-137431904D02*
X77357200Y-137527142D01*
X77357200Y-137527142D02*
X77404819Y-137669999D01*
X77404819Y-137669999D02*
X77404819Y-137908094D01*
X77404819Y-136384285D02*
X77404819Y-136955713D01*
X77404819Y-136669999D02*
X76404819Y-136669999D01*
X76404819Y-136669999D02*
X76547676Y-136765237D01*
X76547676Y-136765237D02*
X76642914Y-136860475D01*
X76642914Y-136860475D02*
X76690533Y-136955713D01*
X96904819Y-137908094D02*
X95904819Y-137908094D01*
X95904819Y-137908094D02*
X95904819Y-137669999D01*
X95904819Y-137669999D02*
X95952438Y-137527142D01*
X95952438Y-137527142D02*
X96047676Y-137431904D01*
X96047676Y-137431904D02*
X96142914Y-137384285D01*
X96142914Y-137384285D02*
X96333390Y-137336666D01*
X96333390Y-137336666D02*
X96476247Y-137336666D01*
X96476247Y-137336666D02*
X96666723Y-137384285D01*
X96666723Y-137384285D02*
X96761961Y-137431904D01*
X96761961Y-137431904D02*
X96857200Y-137527142D01*
X96857200Y-137527142D02*
X96904819Y-137669999D01*
X96904819Y-137669999D02*
X96904819Y-137908094D01*
X96238152Y-136479523D02*
X96904819Y-136479523D01*
X95857200Y-136717618D02*
X96571485Y-136955713D01*
X96571485Y-136955713D02*
X96571485Y-136336666D01*
X89159580Y-136586666D02*
X89207200Y-136634285D01*
X89207200Y-136634285D02*
X89254819Y-136777142D01*
X89254819Y-136777142D02*
X89254819Y-136872380D01*
X89254819Y-136872380D02*
X89207200Y-137015237D01*
X89207200Y-137015237D02*
X89111961Y-137110475D01*
X89111961Y-137110475D02*
X89016723Y-137158094D01*
X89016723Y-137158094D02*
X88826247Y-137205713D01*
X88826247Y-137205713D02*
X88683390Y-137205713D01*
X88683390Y-137205713D02*
X88492914Y-137158094D01*
X88492914Y-137158094D02*
X88397676Y-137110475D01*
X88397676Y-137110475D02*
X88302438Y-137015237D01*
X88302438Y-137015237D02*
X88254819Y-136872380D01*
X88254819Y-136872380D02*
X88254819Y-136777142D01*
X88254819Y-136777142D02*
X88302438Y-136634285D01*
X88302438Y-136634285D02*
X88350057Y-136586666D01*
X88350057Y-136205713D02*
X88302438Y-136158094D01*
X88302438Y-136158094D02*
X88254819Y-136062856D01*
X88254819Y-136062856D02*
X88254819Y-135824761D01*
X88254819Y-135824761D02*
X88302438Y-135729523D01*
X88302438Y-135729523D02*
X88350057Y-135681904D01*
X88350057Y-135681904D02*
X88445295Y-135634285D01*
X88445295Y-135634285D02*
X88540533Y-135634285D01*
X88540533Y-135634285D02*
X88683390Y-135681904D01*
X88683390Y-135681904D02*
X89254819Y-136253332D01*
X89254819Y-136253332D02*
X89254819Y-135634285D01*
X83904819Y-137908094D02*
X82904819Y-137908094D01*
X82904819Y-137908094D02*
X82904819Y-137669999D01*
X82904819Y-137669999D02*
X82952438Y-137527142D01*
X82952438Y-137527142D02*
X83047676Y-137431904D01*
X83047676Y-137431904D02*
X83142914Y-137384285D01*
X83142914Y-137384285D02*
X83333390Y-137336666D01*
X83333390Y-137336666D02*
X83476247Y-137336666D01*
X83476247Y-137336666D02*
X83666723Y-137384285D01*
X83666723Y-137384285D02*
X83761961Y-137431904D01*
X83761961Y-137431904D02*
X83857200Y-137527142D01*
X83857200Y-137527142D02*
X83904819Y-137669999D01*
X83904819Y-137669999D02*
X83904819Y-137908094D01*
X83000057Y-136955713D02*
X82952438Y-136908094D01*
X82952438Y-136908094D02*
X82904819Y-136812856D01*
X82904819Y-136812856D02*
X82904819Y-136574761D01*
X82904819Y-136574761D02*
X82952438Y-136479523D01*
X82952438Y-136479523D02*
X83000057Y-136431904D01*
X83000057Y-136431904D02*
X83095295Y-136384285D01*
X83095295Y-136384285D02*
X83190533Y-136384285D01*
X83190533Y-136384285D02*
X83333390Y-136431904D01*
X83333390Y-136431904D02*
X83904819Y-137003332D01*
X83904819Y-137003332D02*
X83904819Y-136384285D01*
X71059580Y-137890476D02*
X71107200Y-137938095D01*
X71107200Y-137938095D02*
X71154819Y-138080952D01*
X71154819Y-138080952D02*
X71154819Y-138176190D01*
X71154819Y-138176190D02*
X71107200Y-138319047D01*
X71107200Y-138319047D02*
X71011961Y-138414285D01*
X71011961Y-138414285D02*
X70916723Y-138461904D01*
X70916723Y-138461904D02*
X70726247Y-138509523D01*
X70726247Y-138509523D02*
X70583390Y-138509523D01*
X70583390Y-138509523D02*
X70392914Y-138461904D01*
X70392914Y-138461904D02*
X70297676Y-138414285D01*
X70297676Y-138414285D02*
X70202438Y-138319047D01*
X70202438Y-138319047D02*
X70154819Y-138176190D01*
X70154819Y-138176190D02*
X70154819Y-138080952D01*
X70154819Y-138080952D02*
X70202438Y-137938095D01*
X70202438Y-137938095D02*
X70250057Y-137890476D01*
X71154819Y-137461904D02*
X70154819Y-137461904D01*
X70154819Y-137461904D02*
X71154819Y-136890476D01*
X71154819Y-136890476D02*
X70154819Y-136890476D01*
X70250057Y-136461904D02*
X70202438Y-136414285D01*
X70202438Y-136414285D02*
X70154819Y-136319047D01*
X70154819Y-136319047D02*
X70154819Y-136080952D01*
X70154819Y-136080952D02*
X70202438Y-135985714D01*
X70202438Y-135985714D02*
X70250057Y-135938095D01*
X70250057Y-135938095D02*
X70345295Y-135890476D01*
X70345295Y-135890476D02*
X70440533Y-135890476D01*
X70440533Y-135890476D02*
X70583390Y-135938095D01*
X70583390Y-135938095D02*
X71154819Y-136509523D01*
X71154819Y-136509523D02*
X71154819Y-135890476D01*
X104084580Y-137890476D02*
X104132200Y-137938095D01*
X104132200Y-137938095D02*
X104179819Y-138080952D01*
X104179819Y-138080952D02*
X104179819Y-138176190D01*
X104179819Y-138176190D02*
X104132200Y-138319047D01*
X104132200Y-138319047D02*
X104036961Y-138414285D01*
X104036961Y-138414285D02*
X103941723Y-138461904D01*
X103941723Y-138461904D02*
X103751247Y-138509523D01*
X103751247Y-138509523D02*
X103608390Y-138509523D01*
X103608390Y-138509523D02*
X103417914Y-138461904D01*
X103417914Y-138461904D02*
X103322676Y-138414285D01*
X103322676Y-138414285D02*
X103227438Y-138319047D01*
X103227438Y-138319047D02*
X103179819Y-138176190D01*
X103179819Y-138176190D02*
X103179819Y-138080952D01*
X103179819Y-138080952D02*
X103227438Y-137938095D01*
X103227438Y-137938095D02*
X103275057Y-137890476D01*
X104179819Y-137461904D02*
X103179819Y-137461904D01*
X103179819Y-137461904D02*
X104179819Y-136890476D01*
X104179819Y-136890476D02*
X103179819Y-136890476D01*
X104179819Y-135890476D02*
X104179819Y-136461904D01*
X104179819Y-136176190D02*
X103179819Y-136176190D01*
X103179819Y-136176190D02*
X103322676Y-136271428D01*
X103322676Y-136271428D02*
X103417914Y-136366666D01*
X103417914Y-136366666D02*
X103465533Y-136461904D01*
%TO.C,D3*%
D11*
X88725000Y-138445000D02*
X89175000Y-138895000D01*
X89050000Y-134470000D02*
X90850000Y-134470000D01*
X89050000Y-139870000D02*
X90850000Y-139870000D01*
%TO.C,D1*%
X75725000Y-138445000D02*
X76175000Y-138895000D01*
X76050000Y-134470000D02*
X77850000Y-134470000D01*
X76050000Y-139870000D02*
X77850000Y-139870000D01*
%TO.C,C3*%
X92840000Y-135327836D02*
X92840000Y-135112164D01*
X93560000Y-135327836D02*
X93560000Y-135112164D01*
%TO.C,D4*%
X95225000Y-138445000D02*
X95675000Y-138895000D01*
X95550000Y-134470000D02*
X97350000Y-134470000D01*
X95550000Y-139870000D02*
X97350000Y-139870000D01*
%TO.C,C1*%
X79840000Y-135327836D02*
X79840000Y-135112164D01*
X80560000Y-135327836D02*
X80560000Y-135112164D01*
%TO.C,C2*%
X86340000Y-135327836D02*
X86340000Y-135112164D01*
X87060000Y-135327836D02*
X87060000Y-135112164D01*
%TO.C,D2*%
X82225000Y-138445000D02*
X82675000Y-138895000D01*
X82550000Y-134470000D02*
X84350000Y-134470000D01*
X82550000Y-139870000D02*
X84350000Y-139870000D01*
%TO.C,CN2*%
X68015000Y-135760000D02*
X68015000Y-138640000D01*
X69985000Y-134590000D02*
X72485000Y-134590000D01*
X69985000Y-139810000D02*
X72485000Y-139810000D01*
X72485000Y-134590000D02*
X72485000Y-135640000D01*
X72485000Y-135640000D02*
X73475000Y-135640000D01*
X72485000Y-139810000D02*
X72485000Y-138760000D01*
%TO.C,C4*%
X99340000Y-135327836D02*
X99340000Y-135112164D01*
X100060000Y-135327836D02*
X100060000Y-135112164D01*
%TO.C,CN1*%
X101940000Y-134590000D02*
X101940000Y-135640000D01*
X101940000Y-138760000D02*
X100950000Y-138760000D01*
X101940000Y-139810000D02*
X101940000Y-138760000D01*
X104440000Y-134590000D02*
X101940000Y-134590000D01*
X104440000Y-139810000D02*
X101940000Y-139810000D01*
X106410000Y-138640000D02*
X106410000Y-135760000D01*
%TD*%
%LPC*%
D12*
%TO.C,*%
X66400000Y-139200000D03*
%TD*%
D13*
%TO.C,D3*%
X91600000Y-134720000D03*
X88300000Y-134720000D03*
X88300000Y-139620000D03*
X91600000Y-139620000D03*
%TD*%
%TO.C,D1*%
X78600000Y-134720000D03*
X75300000Y-134720000D03*
X75300000Y-139620000D03*
X78600000Y-139620000D03*
%TD*%
D12*
%TO.C,*%
X66400000Y-137100000D03*
%TD*%
D14*
%TO.C,C3*%
X93200000Y-135700000D03*
X93200000Y-134740000D03*
%TD*%
D13*
%TO.C,D4*%
X98100000Y-134720000D03*
X94800000Y-134720000D03*
X94800000Y-139620000D03*
X98100000Y-139620000D03*
%TD*%
D12*
%TO.C,*%
X108000000Y-137200000D03*
%TD*%
D14*
%TO.C,C1*%
X80200000Y-135700000D03*
X80200000Y-134740000D03*
%TD*%
D12*
%TO.C,*%
X66400000Y-135000000D03*
%TD*%
%TO.C,*%
X108000000Y-139300000D03*
%TD*%
D14*
%TO.C,C2*%
X86700000Y-135700000D03*
X86700000Y-134740000D03*
%TD*%
D13*
%TO.C,D2*%
X85100000Y-134720000D03*
X81800000Y-134720000D03*
X81800000Y-139620000D03*
X85100000Y-139620000D03*
%TD*%
D12*
%TO.C,*%
X108000000Y-135100000D03*
%TD*%
D15*
%TO.C,CN2*%
X72700000Y-136200000D03*
X72700000Y-137200000D03*
X72700000Y-138200000D03*
D16*
X68825000Y-134900000D03*
X68825000Y-139500000D03*
%TD*%
D14*
%TO.C,C4*%
X99700000Y-135700000D03*
X99700000Y-134740000D03*
%TD*%
D17*
%TO.C,CN1*%
X101725000Y-138200000D03*
X101725000Y-137200000D03*
X101725000Y-136200000D03*
D18*
X105600000Y-139500000D03*
X105600000Y-134900000D03*
%TD*%
%LPD*%
M02*
