%TF.GenerationSoftware,KiCad,Pcbnew,10.0.6*%
%TF.CreationDate,2026-09-28T21:58:27+03:00*%
%TF.ProjectId,OpenLED,4f70656e-4c45-4442-9e6b-696361645f70,rev?*%
%TF.SameCoordinates,Original*%
%TF.FileFunction,Copper,L1,Top*%
%TF.FilePolarity,Positive*%
%FSLAX46Y46*%
G04 Gerber Fmt 4.6, Leading zero omitted, Abs format (unit mm)*
G04 Created by KiCad (PCBNEW 10.0.6) date 2026-09-28 21:58:27*
%MOMM*%
%LPD*%
G01*
G04 APERTURE LIST*
G04 Aperture macros list*
%AMRoundRect*
0 Rectangle with rounded corners*
0 $1 Rounding radius*
0 $2 $3 $4 $5 $6 $7 $8 $9 X,Y pos of 4 corners*
0 Add a 4 corners polygon primitive as box body*
4,1,4,$2,$3,$4,$5,$6,$7,$8,$9,$2,$3,0*
0 Add four circle primitives for the rounded corners*
1,1,$1+$1,$2,$3*
1,1,$1+$1,$4,$5*
1,1,$1+$1,$6,$7*
1,1,$1+$1,$8,$9*
0 Add four rect primitives between the rounded corners*
20,1,$1+$1,$2,$3,$4,$5,0*
20,1,$1+$1,$4,$5,$6,$7,0*
20,1,$1+$1,$6,$7,$8,$9,0*
20,1,$1+$1,$8,$9,$2,$3,0*%
G04 Aperture macros list end*
%TA.AperFunction,SMDPad,CuDef*%
%ADD10RoundRect,0.250000X-0.500000X-0.500000X0.500000X-0.500000X0.500000X0.500000X-0.500000X0.500000X0*%
%TD*%
%TA.AperFunction,SMDPad,CuDef*%
%ADD11RoundRect,0.090000X-0.360000X0.660000X-0.360000X-0.660000X0.360000X-0.660000X0.360000X0.660000X0*%
%TD*%
%TA.AperFunction,SMDPad,CuDef*%
%ADD12RoundRect,0.140000X0.170000X-0.140000X0.170000X0.140000X-0.170000X0.140000X-0.170000X-0.140000X0*%
%TD*%
%TA.AperFunction,SMDPad,CuDef*%
%ADD13RoundRect,0.150000X-0.625000X0.150000X-0.625000X-0.150000X0.625000X-0.150000X0.625000X0.150000X0*%
%TD*%
%TA.AperFunction,SMDPad,CuDef*%
%ADD14RoundRect,0.250000X-0.650000X0.350000X-0.650000X-0.350000X0.650000X-0.350000X0.650000X0.350000X0*%
%TD*%
%TA.AperFunction,SMDPad,CuDef*%
%ADD15RoundRect,0.150000X0.625000X-0.150000X0.625000X0.150000X-0.625000X0.150000X-0.625000X-0.150000X0*%
%TD*%
%TA.AperFunction,SMDPad,CuDef*%
%ADD16RoundRect,0.250000X0.650000X-0.350000X0.650000X0.350000X-0.650000X0.350000X-0.650000X-0.350000X0*%
%TD*%
%TA.AperFunction,ViaPad*%
%ADD17C,0.600000*%
%TD*%
%TA.AperFunction,Conductor*%
%ADD18C,0.200000*%
%TD*%
%TA.AperFunction,Conductor*%
%ADD19C,0.500000*%
%TD*%
%TA.AperFunction,Conductor*%
%ADD20C,0.400000*%
%TD*%
%TA.AperFunction,Conductor*%
%ADD21C,0.600000*%
%TD*%
%TA.AperFunction,Conductor*%
%ADD22C,0.300000*%
%TD*%
G04 APERTURE END LIST*
D10*
%TO.P,,1,1_1*%
%TO.N,GND*%
X66400000Y-139200000D03*
%TD*%
D11*
%TO.P,D3,1,VDD_1*%
%TO.N,+5V*%
X91600000Y-134720000D03*
%TO.P,D3,2,DOUT_2*%
%TO.N,Net-(D3-DOUT)*%
X88300000Y-134720000D03*
%TO.P,D3,3,VSS_3*%
%TO.N,GND*%
X88300000Y-139620000D03*
%TO.P,D3,4,DIN_4*%
%TO.N,Net-(D2-DOUT)*%
X91600000Y-139620000D03*
%TD*%
%TO.P,D1,1,VDD_1*%
%TO.N,+5V*%
X78600000Y-134720000D03*
%TO.P,D1,2,DOUT_2*%
%TO.N,Net-(D1-DOUT)*%
X75300000Y-134720000D03*
%TO.P,D1,3,VSS_3*%
%TO.N,GND*%
X75300000Y-139620000D03*
%TO.P,D1,4,DIN_4*%
%TO.N,/DIN*%
X78600000Y-139620000D03*
%TD*%
D10*
%TO.P,,1,1_1*%
%TO.N,/DIN*%
X66400000Y-137100000D03*
%TD*%
D12*
%TO.P,C3,1*%
%TO.N,GND*%
X93200000Y-135700000D03*
%TO.P,C3,2*%
%TO.N,+5V*%
X93200000Y-134740000D03*
%TD*%
D11*
%TO.P,D4,1,VDD_1*%
%TO.N,+5V*%
X98100000Y-134720000D03*
%TO.P,D4,2,DOUT_2*%
%TO.N,/DOUT*%
X94800000Y-134720000D03*
%TO.P,D4,3,VSS_3*%
%TO.N,GND*%
X94800000Y-139620000D03*
%TO.P,D4,4,DIN_4*%
%TO.N,Net-(D3-DOUT)*%
X98100000Y-139620000D03*
%TD*%
D10*
%TO.P,,1,1_1*%
%TO.N,/DOUT*%
X108000000Y-137200000D03*
%TD*%
D12*
%TO.P,C1,1*%
%TO.N,GND*%
X80200000Y-135700000D03*
%TO.P,C1,2*%
%TO.N,+5V*%
X80200000Y-134740000D03*
%TD*%
D10*
%TO.P,,1,1_1*%
%TO.N,+5V*%
X66400000Y-135000000D03*
%TD*%
%TO.P,,1,1_1*%
%TO.N,GND*%
X108000000Y-139300000D03*
%TD*%
D12*
%TO.P,C2,1*%
%TO.N,GND*%
X86700000Y-135700000D03*
%TO.P,C2,2*%
%TO.N,+5V*%
X86700000Y-134740000D03*
%TD*%
D11*
%TO.P,D2,1,VDD_1*%
%TO.N,+5V*%
X85100000Y-134720000D03*
%TO.P,D2,2,DOUT_2*%
%TO.N,Net-(D2-DOUT)*%
X81800000Y-134720000D03*
%TO.P,D2,3,VSS_3*%
%TO.N,GND*%
X81800000Y-139620000D03*
%TO.P,D2,4,DIN_4*%
%TO.N,Net-(D1-DOUT)*%
X85100000Y-139620000D03*
%TD*%
D10*
%TO.P,,1,1_1*%
%TO.N,+5V*%
X108000000Y-135100000D03*
%TD*%
D13*
%TO.P,CN2,1,1_1*%
%TO.N,+5V*%
X72700000Y-136200000D03*
%TO.P,CN2,2,2_2*%
%TO.N,/DIN*%
X72700000Y-137200000D03*
%TO.P,CN2,3,3_3*%
%TO.N,GND*%
X72700000Y-138200000D03*
D14*
%TO.P,CN2,MP*%
X68825000Y-134900000D03*
X68825000Y-139500000D03*
%TD*%
D12*
%TO.P,C4,1*%
%TO.N,GND*%
X99700000Y-135700000D03*
%TO.P,C4,2*%
%TO.N,+5V*%
X99700000Y-134740000D03*
%TD*%
D15*
%TO.P,CN1,1,1_1*%
%TO.N,GND*%
X101725000Y-138200000D03*
%TO.P,CN1,2,2_2*%
%TO.N,/DOUT*%
X101725000Y-137200000D03*
%TO.P,CN1,3,3_3*%
%TO.N,+5V*%
X101725000Y-136200000D03*
D16*
%TO.P,CN1,MP*%
%TO.N,GND*%
X105600000Y-139500000D03*
X105600000Y-134900000D03*
%TD*%
D17*
%TO.N,GND*%
X87350001Y-135306986D03*
X80850002Y-135306985D03*
X70800000Y-139500000D03*
X70600000Y-134900000D03*
X100900000Y-135100000D03*
X80300000Y-138000000D03*
X95900000Y-135600000D03*
X75200000Y-138000000D03*
%TO.N,Net-(D3-DOUT)*%
X96650000Y-139350000D03*
X89400000Y-135000000D03*
%TO.N,Net-(D2-DOUT)*%
X90300000Y-139400000D03*
X82800000Y-135000000D03*
%TO.N,/DOUT*%
X96412149Y-134985421D03*
X100000000Y-137300000D03*
%TO.N,Net-(D1-DOUT)*%
X83950000Y-139450000D03*
X76600000Y-135000000D03*
%TD*%
%TO.N,GND*%
D18*
X75300000Y-138100000D02*
X75200000Y-138000000D01*
D19*
X86956987Y-135700000D02*
X86700000Y-135700000D01*
D18*
X80300000Y-138120000D02*
X80300000Y-138000000D01*
D20*
X99900000Y-135500000D02*
X100500000Y-135500000D01*
D18*
X80456987Y-135700000D02*
X80850002Y-135306985D01*
D20*
X99700000Y-135700000D02*
X99900000Y-135500000D01*
D18*
X80200000Y-135700000D02*
X80456987Y-135700000D01*
X93200000Y-135700000D02*
X93300000Y-135800000D01*
D19*
X87350001Y-135306986D02*
X86956987Y-135700000D01*
D20*
X100500000Y-135500000D02*
X100900000Y-135100000D01*
%TO.N,+5V*%
D21*
X83860000Y-135960000D02*
X85100000Y-134720000D01*
X84380000Y-136480000D02*
X83860000Y-135960000D01*
X100138976Y-136480000D02*
X100418976Y-136200000D01*
X100418976Y-136200000D02*
X101725000Y-136200000D01*
X90780000Y-136480000D02*
X90310000Y-136010000D01*
X97400000Y-136480000D02*
X100138976Y-136480000D01*
X99700000Y-134740000D02*
X98120000Y-134740000D01*
X98120000Y-134740000D02*
X98100000Y-134720000D01*
X97400000Y-136480000D02*
X97380000Y-136480000D01*
X84400000Y-136480000D02*
X89840000Y-136480000D01*
X83340000Y-136480000D02*
X83860000Y-135960000D01*
X101725000Y-136200000D02*
X106900000Y-136200000D01*
X77120000Y-136200000D02*
X77400000Y-136480000D01*
X77900000Y-136480000D02*
X77900000Y-136400000D01*
X96340000Y-136480000D02*
X96860000Y-135960000D01*
X91620000Y-134740000D02*
X91600000Y-134720000D01*
X77900000Y-136400000D02*
X77410000Y-135910000D01*
X78620000Y-134740000D02*
X78600000Y-134720000D01*
X96340000Y-136480000D02*
X97400000Y-136480000D01*
X90310000Y-136010000D02*
X91600000Y-134720000D01*
X86700000Y-134740000D02*
X85120000Y-134740000D01*
X77900000Y-136480000D02*
X83340000Y-136480000D01*
X85120000Y-134740000D02*
X85100000Y-134720000D01*
X83340000Y-136480000D02*
X84400000Y-136480000D01*
X77120000Y-136200000D02*
X77410000Y-135910000D01*
X89840000Y-136480000D02*
X91200000Y-136480000D01*
X89840000Y-136480000D02*
X90310000Y-136010000D01*
X77410000Y-135910000D02*
X78600000Y-134720000D01*
X72700000Y-136200000D02*
X67600000Y-136200000D01*
X80200000Y-134740000D02*
X78620000Y-134740000D01*
X72700000Y-136200000D02*
X77120000Y-136200000D01*
X91200000Y-136480000D02*
X96340000Y-136480000D01*
X67600000Y-136200000D02*
X66400000Y-135000000D01*
X93200000Y-134740000D02*
X91620000Y-134740000D01*
X84400000Y-136480000D02*
X84380000Y-136480000D01*
X97380000Y-136480000D02*
X96860000Y-135960000D01*
X77400000Y-136480000D02*
X77900000Y-136480000D01*
X106900000Y-136200000D02*
X108000000Y-135100000D01*
X91200000Y-136480000D02*
X90780000Y-136480000D01*
X96860000Y-135960000D02*
X98100000Y-134720000D01*
%TO.N,Net-(D3-DOUT)*%
D22*
X96650000Y-139350000D02*
X96920000Y-139620000D01*
X89400000Y-135000000D02*
X89120000Y-134720000D01*
X96920000Y-139620000D02*
X98100000Y-139620000D01*
X89120000Y-134720000D02*
X88300000Y-134720000D01*
%TO.N,Net-(D2-DOUT)*%
X82520000Y-134720000D02*
X81800000Y-134720000D01*
X90520000Y-139620000D02*
X91600000Y-139620000D01*
X82800000Y-135000000D02*
X82520000Y-134720000D01*
X90300000Y-139400000D02*
X90520000Y-139620000D01*
%TO.N,/DOUT*%
X101725000Y-137200000D02*
X100100000Y-137200000D01*
X96080000Y-134720000D02*
X94800000Y-134720000D01*
X101725000Y-137200000D02*
X108000000Y-137200000D01*
X96345421Y-134985421D02*
X96080000Y-134720000D01*
X100100000Y-137200000D02*
X100000000Y-137300000D01*
X96412149Y-134985421D02*
X96345421Y-134985421D01*
%TO.N,Net-(D1-DOUT)*%
X76600000Y-134940000D02*
X76380000Y-134720000D01*
X76600000Y-135000000D02*
X76600000Y-134940000D01*
X84120000Y-139620000D02*
X85100000Y-139620000D01*
X76380000Y-134720000D02*
X75300000Y-134720000D01*
X83950000Y-139450000D02*
X84120000Y-139620000D01*
%TO.N,/DIN*%
X72700000Y-137200000D02*
X66500000Y-137200000D01*
X72700000Y-137200000D02*
X76180000Y-137200000D01*
X76180000Y-137200000D02*
X78600000Y-139620000D01*
X66500000Y-137200000D02*
X66400000Y-137100000D01*
%TD*%
%TA.AperFunction,Conductor*%
%TO.N,GND*%
G36*
X71499866Y-137569407D02*
G01*
X71535830Y-137618907D01*
X71535830Y-137680093D01*
X71526889Y-137699895D01*
X71473718Y-137789802D01*
X71427901Y-137947506D01*
X71427899Y-137947513D01*
X71427704Y-137950000D01*
X73972295Y-137950000D01*
X73972100Y-137947513D01*
X73972098Y-137947506D01*
X73926281Y-137789802D01*
X73873111Y-137699895D01*
X73859764Y-137640183D01*
X73884064Y-137584030D01*
X73936729Y-137552884D01*
X73958325Y-137550500D01*
X75993810Y-137550500D01*
X76052001Y-137569407D01*
X76063814Y-137579496D01*
X77920504Y-139436186D01*
X77948281Y-139490703D01*
X77949500Y-139506190D01*
X77949500Y-139816392D01*
X77949501Y-140100500D01*
X77930594Y-140158691D01*
X77881094Y-140194655D01*
X77850501Y-140199500D01*
X76349000Y-140199500D01*
X76290809Y-140180593D01*
X76254845Y-140131093D01*
X76250000Y-140100500D01*
X76250000Y-139870001D01*
X76249999Y-139870000D01*
X74350001Y-139870000D01*
X74350000Y-139870001D01*
X74350000Y-140100500D01*
X74331093Y-140158691D01*
X74281593Y-140194655D01*
X74251000Y-140199500D01*
X70286390Y-140199500D01*
X70228199Y-140180593D01*
X70192235Y-140131093D01*
X70192235Y-140069907D01*
X70192415Y-140069359D01*
X70214506Y-140002691D01*
X70225000Y-139899987D01*
X70225000Y-139750001D01*
X70224999Y-139750000D01*
X67425002Y-139750000D01*
X67425001Y-139750001D01*
X67425001Y-139899986D01*
X67435492Y-140002687D01*
X67435494Y-140002695D01*
X67457585Y-140069359D01*
X67457941Y-140130544D01*
X67422266Y-140180252D01*
X67364187Y-140199498D01*
X67363610Y-140199500D01*
X65699500Y-140199500D01*
X65641309Y-140180593D01*
X65605345Y-140131093D01*
X65600500Y-140100500D01*
X65600500Y-139100012D01*
X67425000Y-139100012D01*
X67425000Y-139249999D01*
X67425001Y-139250000D01*
X68574999Y-139250000D01*
X68575000Y-139249999D01*
X68575000Y-138400001D01*
X69075000Y-138400001D01*
X69075000Y-139249999D01*
X69075001Y-139250000D01*
X70224998Y-139250000D01*
X70224999Y-139249999D01*
X70224999Y-139100013D01*
X70214507Y-138997312D01*
X70214504Y-138997300D01*
X70159356Y-138830875D01*
X70067319Y-138681659D01*
X69943342Y-138557682D01*
X69847972Y-138498857D01*
X69847970Y-138498855D01*
X69794124Y-138465643D01*
X69746917Y-138450000D01*
X71427704Y-138450000D01*
X71427899Y-138452486D01*
X71427901Y-138452493D01*
X71473719Y-138610200D01*
X71473719Y-138610201D01*
X71557314Y-138751552D01*
X71673447Y-138867685D01*
X71814799Y-138951280D01*
X71972510Y-138997100D01*
X72009363Y-139000000D01*
X72449999Y-139000000D01*
X72450000Y-138999999D01*
X72450000Y-138450001D01*
X72950000Y-138450001D01*
X72950000Y-138999999D01*
X72950001Y-139000000D01*
X73390637Y-139000000D01*
X73427489Y-138997100D01*
X73585200Y-138951280D01*
X73585201Y-138951280D01*
X73635847Y-138921328D01*
X74350000Y-138921328D01*
X74350000Y-139369999D01*
X74350001Y-139370000D01*
X75049999Y-139370000D01*
X75050000Y-139369999D01*
X75050000Y-138370001D01*
X75550000Y-138370001D01*
X75550000Y-139369999D01*
X75550001Y-139370000D01*
X76249999Y-139370000D01*
X76250000Y-139369999D01*
X76250000Y-138921331D01*
X76249999Y-138921328D01*
X76234814Y-138805982D01*
X76234812Y-138805974D01*
X76175365Y-138662456D01*
X76080793Y-138539208D01*
X76080791Y-138539206D01*
X75957543Y-138444634D01*
X75814025Y-138385187D01*
X75814017Y-138385185D01*
X75698671Y-138370000D01*
X75550001Y-138370000D01*
X75550000Y-138370001D01*
X75050000Y-138370001D01*
X75049999Y-138370000D01*
X74901328Y-138370000D01*
X74785982Y-138385185D01*
X74785974Y-138385187D01*
X74642456Y-138444634D01*
X74519208Y-138539206D01*
X74519206Y-138539208D01*
X74424634Y-138662456D01*
X74365187Y-138805974D01*
X74365185Y-138805982D01*
X74350000Y-138921328D01*
X73635847Y-138921328D01*
X73726552Y-138867685D01*
X73746153Y-138848085D01*
X73842685Y-138751552D01*
X73926280Y-138610201D01*
X73926280Y-138610200D01*
X73972098Y-138452493D01*
X73972100Y-138452486D01*
X73972296Y-138450000D01*
X72950001Y-138450000D01*
X72950000Y-138450001D01*
X72450000Y-138450001D01*
X72449999Y-138450000D01*
X71427704Y-138450000D01*
X69746917Y-138450000D01*
X69627693Y-138410493D01*
X69524987Y-138400000D01*
X69075001Y-138400000D01*
X69075000Y-138400001D01*
X68575000Y-138400001D01*
X68574999Y-138400000D01*
X68125013Y-138400000D01*
X68022312Y-138410492D01*
X68022300Y-138410495D01*
X67855875Y-138465643D01*
X67706659Y-138557680D01*
X67582680Y-138681659D01*
X67490643Y-138830875D01*
X67435493Y-138997306D01*
X67425000Y-139100012D01*
X65600500Y-139100012D01*
X65600500Y-138112011D01*
X65619407Y-138053820D01*
X65668907Y-138017856D01*
X65730093Y-138017856D01*
X65732188Y-138018563D01*
X65815301Y-138047646D01*
X65845725Y-138050499D01*
X65845727Y-138050500D01*
X65845734Y-138050500D01*
X66954273Y-138050500D01*
X66954273Y-138050499D01*
X66984699Y-138047646D01*
X67112882Y-138002793D01*
X67222150Y-137922150D01*
X67302793Y-137812882D01*
X67347646Y-137684699D01*
X67350499Y-137654273D01*
X67350500Y-137654273D01*
X67350500Y-137649500D01*
X67369407Y-137591309D01*
X67418907Y-137555345D01*
X67449500Y-137550500D01*
X71441675Y-137550500D01*
X71499866Y-137569407D01*
G37*
%TD.AperFunction*%
%TA.AperFunction,Conductor*%
G36*
X76929869Y-136719407D02*
G01*
X76941682Y-136729496D01*
X76999500Y-136787314D01*
X76999499Y-136787314D01*
X77092685Y-136880499D01*
X77092690Y-136880503D01*
X77206810Y-136946390D01*
X77206808Y-136946390D01*
X77206812Y-136946391D01*
X77206814Y-136946392D01*
X77334108Y-136980500D01*
X77834108Y-136980500D01*
X83274108Y-136980500D01*
X84314108Y-136980500D01*
X84334108Y-136980500D01*
X89774108Y-136980500D01*
X89905892Y-136980500D01*
X90714107Y-136980500D01*
X90714108Y-136980500D01*
X91134108Y-136980500D01*
X96274108Y-136980500D01*
X97314108Y-136980500D01*
X97334108Y-136980500D01*
X99438435Y-136980500D01*
X99496626Y-136999407D01*
X99532590Y-137048907D01*
X99534062Y-137105123D01*
X99533609Y-137106811D01*
X99533608Y-137106814D01*
X99499500Y-137234108D01*
X99499500Y-137365892D01*
X99529579Y-137478151D01*
X99533609Y-137493190D01*
X99599496Y-137607309D01*
X99599498Y-137607311D01*
X99599500Y-137607314D01*
X99692686Y-137700500D01*
X99692688Y-137700501D01*
X99692690Y-137700503D01*
X99806810Y-137766390D01*
X99806808Y-137766390D01*
X99806812Y-137766391D01*
X99806814Y-137766392D01*
X99934108Y-137800500D01*
X99934110Y-137800500D01*
X100065890Y-137800500D01*
X100065892Y-137800500D01*
X100193186Y-137766392D01*
X100193188Y-137766390D01*
X100193190Y-137766390D01*
X100307309Y-137700503D01*
X100307309Y-137700502D01*
X100307314Y-137700500D01*
X100350870Y-137656943D01*
X100405384Y-137629167D01*
X100465816Y-137638738D01*
X100509081Y-137682002D01*
X100518653Y-137742434D01*
X100506087Y-137777341D01*
X100498718Y-137789801D01*
X100452901Y-137947506D01*
X100452899Y-137947513D01*
X100452704Y-137950000D01*
X102997295Y-137950000D01*
X102997100Y-137947513D01*
X102997098Y-137947506D01*
X102951281Y-137789802D01*
X102898111Y-137699895D01*
X102884764Y-137640183D01*
X102909064Y-137584030D01*
X102961729Y-137552884D01*
X102983325Y-137550500D01*
X106950500Y-137550500D01*
X107008691Y-137569407D01*
X107044655Y-137618907D01*
X107049500Y-137649500D01*
X107049500Y-137754274D01*
X107052353Y-137784694D01*
X107052355Y-137784703D01*
X107097207Y-137912883D01*
X107177845Y-138022144D01*
X107177847Y-138022146D01*
X107177850Y-138022150D01*
X107177853Y-138022152D01*
X107177855Y-138022154D01*
X107287116Y-138102792D01*
X107287117Y-138102792D01*
X107287118Y-138102793D01*
X107415301Y-138147646D01*
X107445725Y-138150499D01*
X107445727Y-138150500D01*
X107445734Y-138150500D01*
X108554273Y-138150500D01*
X108554273Y-138150499D01*
X108584699Y-138147646D01*
X108667802Y-138118566D01*
X108728972Y-138117194D01*
X108779267Y-138152037D01*
X108799475Y-138209789D01*
X108799500Y-138212011D01*
X108799500Y-140100500D01*
X108780593Y-140158691D01*
X108731093Y-140194655D01*
X108700500Y-140199500D01*
X107061390Y-140199500D01*
X107003199Y-140180593D01*
X106967235Y-140131093D01*
X106967235Y-140069907D01*
X106967415Y-140069359D01*
X106989506Y-140002691D01*
X107000000Y-139899987D01*
X107000000Y-139750001D01*
X106999999Y-139750000D01*
X104200002Y-139750000D01*
X104200001Y-139750001D01*
X104200001Y-139899986D01*
X104210492Y-140002687D01*
X104210494Y-140002695D01*
X104232585Y-140069359D01*
X104232941Y-140130544D01*
X104197266Y-140180252D01*
X104139187Y-140199498D01*
X104138610Y-140199500D01*
X98849500Y-140199500D01*
X98791309Y-140180593D01*
X98755345Y-140131093D01*
X98750500Y-140100500D01*
X98750499Y-139100012D01*
X104200000Y-139100012D01*
X104200000Y-139249999D01*
X104200001Y-139250000D01*
X105349999Y-139250000D01*
X105350000Y-139249999D01*
X105350000Y-138400001D01*
X105850000Y-138400001D01*
X105850000Y-139249999D01*
X105850001Y-139250000D01*
X106999998Y-139250000D01*
X106999999Y-139249999D01*
X106999999Y-139100013D01*
X106989507Y-138997312D01*
X106989504Y-138997300D01*
X106934356Y-138830875D01*
X106842319Y-138681659D01*
X106718340Y-138557680D01*
X106569124Y-138465643D01*
X106402693Y-138410493D01*
X106299987Y-138400000D01*
X105850001Y-138400000D01*
X105850000Y-138400001D01*
X105350000Y-138400001D01*
X105349999Y-138400000D01*
X104900013Y-138400000D01*
X104797312Y-138410492D01*
X104797300Y-138410495D01*
X104630875Y-138465643D01*
X104481659Y-138557680D01*
X104357680Y-138681659D01*
X104265643Y-138830875D01*
X104210493Y-138997306D01*
X104200000Y-139100012D01*
X98750499Y-139100012D01*
X98750499Y-138916630D01*
X98750499Y-138916628D01*
X98747682Y-138892338D01*
X98703813Y-138792984D01*
X98627016Y-138716187D01*
X98527662Y-138672318D01*
X98527661Y-138672317D01*
X98527659Y-138672317D01*
X98503376Y-138669500D01*
X97696630Y-138669500D01*
X97696627Y-138669501D01*
X97672338Y-138672317D01*
X97572984Y-138716187D01*
X97496187Y-138792984D01*
X97452317Y-138892340D01*
X97449500Y-138916622D01*
X97449500Y-139170500D01*
X97430593Y-139228691D01*
X97381093Y-139264655D01*
X97350500Y-139269500D01*
X97222551Y-139269500D01*
X97164360Y-139250593D01*
X97128396Y-139201093D01*
X97126929Y-139196139D01*
X97116392Y-139156814D01*
X97116389Y-139156809D01*
X97050503Y-139042690D01*
X97050501Y-139042688D01*
X97050500Y-139042686D01*
X96957314Y-138949500D01*
X96957311Y-138949498D01*
X96957309Y-138949496D01*
X96843189Y-138883609D01*
X96843191Y-138883609D01*
X96783760Y-138867685D01*
X96715892Y-138849500D01*
X96584108Y-138849500D01*
X96516240Y-138867685D01*
X96456809Y-138883609D01*
X96342690Y-138949496D01*
X96249496Y-139042690D01*
X96183609Y-139156809D01*
X96170967Y-139203992D01*
X96149500Y-139284108D01*
X96149500Y-139415892D01*
X96173695Y-139506190D01*
X96183609Y-139543190D01*
X96249496Y-139657309D01*
X96249498Y-139657311D01*
X96249500Y-139657314D01*
X96342686Y-139750500D01*
X96342688Y-139750501D01*
X96342690Y-139750503D01*
X96456810Y-139816390D01*
X96456808Y-139816390D01*
X96456812Y-139816391D01*
X96456814Y-139816392D01*
X96584108Y-139850500D01*
X96613811Y-139850500D01*
X96672002Y-139869407D01*
X96683808Y-139879490D01*
X96704788Y-139900470D01*
X96784712Y-139946614D01*
X96873856Y-139970500D01*
X96873857Y-139970500D01*
X96966144Y-139970500D01*
X97350501Y-139970500D01*
X97408692Y-139989407D01*
X97444656Y-140038907D01*
X97449501Y-140069500D01*
X97449501Y-140100500D01*
X97430594Y-140158691D01*
X97381094Y-140194655D01*
X97350501Y-140199500D01*
X95849000Y-140199500D01*
X95790809Y-140180593D01*
X95754845Y-140131093D01*
X95750000Y-140100500D01*
X95750000Y-139870001D01*
X95749999Y-139870000D01*
X93850001Y-139870000D01*
X93850000Y-139870001D01*
X93850000Y-140100500D01*
X93831093Y-140158691D01*
X93781593Y-140194655D01*
X93751000Y-140199500D01*
X92349500Y-140199500D01*
X92291309Y-140180593D01*
X92255345Y-140131093D01*
X92250500Y-140100500D01*
X92250499Y-138921328D01*
X93850000Y-138921328D01*
X93850000Y-139369999D01*
X93850001Y-139370000D01*
X94549999Y-139370000D01*
X94550000Y-139369999D01*
X94550000Y-138370001D01*
X95050000Y-138370001D01*
X95050000Y-139369999D01*
X95050001Y-139370000D01*
X95749999Y-139370000D01*
X95750000Y-139369999D01*
X95750000Y-138921331D01*
X95749999Y-138921328D01*
X95734814Y-138805982D01*
X95734812Y-138805974D01*
X95675365Y-138662456D01*
X95580793Y-138539208D01*
X95580787Y-138539202D01*
X95520791Y-138493165D01*
X95520754Y-138493138D01*
X95464536Y-138450000D01*
X100452704Y-138450000D01*
X100452899Y-138452486D01*
X100452901Y-138452493D01*
X100498719Y-138610200D01*
X100498719Y-138610201D01*
X100582314Y-138751552D01*
X100698447Y-138867685D01*
X100839799Y-138951280D01*
X100997510Y-138997100D01*
X101034363Y-139000000D01*
X101474999Y-139000000D01*
X101475000Y-138999999D01*
X101475000Y-138450001D01*
X101975000Y-138450001D01*
X101975000Y-138999999D01*
X101975001Y-139000000D01*
X102415637Y-139000000D01*
X102430810Y-138998806D01*
X102452489Y-138997100D01*
X102610200Y-138951280D01*
X102610201Y-138951280D01*
X102751552Y-138867685D01*
X102867685Y-138751552D01*
X102951280Y-138610201D01*
X102951280Y-138610200D01*
X102997098Y-138452493D01*
X102997100Y-138452486D01*
X102997296Y-138450000D01*
X101975001Y-138450000D01*
X101975000Y-138450001D01*
X101475000Y-138450001D01*
X101474999Y-138450000D01*
X100452704Y-138450000D01*
X95464536Y-138450000D01*
X95457543Y-138444634D01*
X95314025Y-138385187D01*
X95314017Y-138385185D01*
X95198671Y-138370000D01*
X95050001Y-138370000D01*
X95050000Y-138370001D01*
X94550000Y-138370001D01*
X94549999Y-138370000D01*
X94401328Y-138370000D01*
X94285982Y-138385185D01*
X94285974Y-138385187D01*
X94142456Y-138444634D01*
X94019208Y-138539206D01*
X94019206Y-138539208D01*
X93924634Y-138662456D01*
X93865187Y-138805974D01*
X93865185Y-138805982D01*
X93850000Y-138921328D01*
X92250499Y-138921328D01*
X92250499Y-138918089D01*
X92250499Y-138916630D01*
X92250499Y-138916628D01*
X92247682Y-138892338D01*
X92203813Y-138792984D01*
X92127016Y-138716187D01*
X92027662Y-138672318D01*
X92027661Y-138672317D01*
X92027659Y-138672317D01*
X92003376Y-138669500D01*
X91196630Y-138669500D01*
X91196627Y-138669501D01*
X91172338Y-138672317D01*
X91072984Y-138716187D01*
X90996187Y-138792984D01*
X90952317Y-138892340D01*
X90949500Y-138916622D01*
X90949500Y-139154492D01*
X90930593Y-139212683D01*
X90881093Y-139248647D01*
X90819907Y-139248647D01*
X90770407Y-139212683D01*
X90764764Y-139203992D01*
X90700503Y-139092690D01*
X90700501Y-139092688D01*
X90700500Y-139092686D01*
X90607314Y-138999500D01*
X90607311Y-138999498D01*
X90607309Y-138999496D01*
X90493189Y-138933609D01*
X90493191Y-138933609D01*
X90435268Y-138918089D01*
X90365892Y-138899500D01*
X90234108Y-138899500D01*
X90164732Y-138918089D01*
X90106809Y-138933609D01*
X89992690Y-138999496D01*
X89899496Y-139092690D01*
X89833609Y-139206809D01*
X89820212Y-139256809D01*
X89799500Y-139334108D01*
X89799500Y-139465892D01*
X89820211Y-139543186D01*
X89833609Y-139593190D01*
X89899496Y-139707309D01*
X89899498Y-139707311D01*
X89899500Y-139707314D01*
X89992686Y-139800500D01*
X89992688Y-139800501D01*
X89992690Y-139800503D01*
X90106810Y-139866390D01*
X90106808Y-139866390D01*
X90106812Y-139866391D01*
X90106814Y-139866392D01*
X90234108Y-139900500D01*
X90278313Y-139900500D01*
X90327811Y-139913762D01*
X90384712Y-139946614D01*
X90473856Y-139970500D01*
X90850501Y-139970500D01*
X90908692Y-139989407D01*
X90944656Y-140038907D01*
X90949501Y-140069500D01*
X90949501Y-140100500D01*
X90930594Y-140158691D01*
X90881094Y-140194655D01*
X90850501Y-140199500D01*
X89349000Y-140199500D01*
X89290809Y-140180593D01*
X89254845Y-140131093D01*
X89250000Y-140100500D01*
X89250000Y-139870001D01*
X89249999Y-139870000D01*
X87350001Y-139870000D01*
X87350000Y-139870001D01*
X87350000Y-140100500D01*
X87331093Y-140158691D01*
X87281593Y-140194655D01*
X87251000Y-140199500D01*
X85849500Y-140199500D01*
X85791309Y-140180593D01*
X85755345Y-140131093D01*
X85750500Y-140100500D01*
X85750499Y-138921328D01*
X87350000Y-138921328D01*
X87350000Y-139369999D01*
X87350001Y-139370000D01*
X88049999Y-139370000D01*
X88050000Y-139369999D01*
X88050000Y-138370001D01*
X88550000Y-138370001D01*
X88550000Y-139369999D01*
X88550001Y-139370000D01*
X89249999Y-139370000D01*
X89250000Y-139369999D01*
X89250000Y-138921331D01*
X89249999Y-138921328D01*
X89234814Y-138805982D01*
X89234812Y-138805974D01*
X89175365Y-138662456D01*
X89080793Y-138539208D01*
X89080791Y-138539206D01*
X88957543Y-138444634D01*
X88814025Y-138385187D01*
X88814017Y-138385185D01*
X88698671Y-138370000D01*
X88550001Y-138370000D01*
X88550000Y-138370001D01*
X88050000Y-138370001D01*
X88049999Y-138370000D01*
X87901328Y-138370000D01*
X87785982Y-138385185D01*
X87785974Y-138385187D01*
X87642456Y-138444634D01*
X87519208Y-138539206D01*
X87519206Y-138539208D01*
X87424634Y-138662456D01*
X87365187Y-138805974D01*
X87365185Y-138805982D01*
X87350000Y-138921328D01*
X85750499Y-138921328D01*
X85750499Y-138918089D01*
X85750499Y-138916630D01*
X85750499Y-138916628D01*
X85747682Y-138892338D01*
X85703813Y-138792984D01*
X85627016Y-138716187D01*
X85527662Y-138672318D01*
X85527661Y-138672317D01*
X85527659Y-138672317D01*
X85503376Y-138669500D01*
X84696630Y-138669500D01*
X84696627Y-138669501D01*
X84672338Y-138672317D01*
X84572984Y-138716187D01*
X84496187Y-138792984D01*
X84452317Y-138892340D01*
X84449500Y-138916622D01*
X84449500Y-139002679D01*
X84430593Y-139060870D01*
X84381093Y-139096834D01*
X84319907Y-139096834D01*
X84280498Y-139072684D01*
X84257314Y-139049500D01*
X84257311Y-139049498D01*
X84257309Y-139049496D01*
X84143189Y-138983609D01*
X84143191Y-138983609D01*
X84093799Y-138970375D01*
X84015892Y-138949500D01*
X83884108Y-138949500D01*
X83806200Y-138970375D01*
X83756809Y-138983609D01*
X83642690Y-139049496D01*
X83549496Y-139142690D01*
X83483609Y-139256809D01*
X83476294Y-139284109D01*
X83449500Y-139384108D01*
X83449500Y-139515892D01*
X83470211Y-139593186D01*
X83483609Y-139643190D01*
X83549496Y-139757309D01*
X83549498Y-139757311D01*
X83549500Y-139757314D01*
X83642686Y-139850500D01*
X83642688Y-139850501D01*
X83642690Y-139850503D01*
X83756810Y-139916390D01*
X83756808Y-139916390D01*
X83756812Y-139916391D01*
X83756814Y-139916392D01*
X83884108Y-139950500D01*
X83986180Y-139950500D01*
X84011802Y-139953873D01*
X84026944Y-139957930D01*
X84073856Y-139970500D01*
X84350501Y-139970500D01*
X84408692Y-139989407D01*
X84444656Y-140038907D01*
X84449501Y-140069500D01*
X84449501Y-140100500D01*
X84430594Y-140158691D01*
X84381094Y-140194655D01*
X84350501Y-140199500D01*
X82849000Y-140199500D01*
X82790809Y-140180593D01*
X82754845Y-140131093D01*
X82750000Y-140100500D01*
X82750000Y-139870001D01*
X82749999Y-139870000D01*
X80850001Y-139870000D01*
X80850000Y-139870001D01*
X80850000Y-140100500D01*
X80831093Y-140158691D01*
X80781593Y-140194655D01*
X80751000Y-140199500D01*
X79349500Y-140199500D01*
X79291309Y-140180593D01*
X79255345Y-140131093D01*
X79250500Y-140100500D01*
X79250499Y-138921328D01*
X80850000Y-138921328D01*
X80850000Y-139369999D01*
X80850001Y-139370000D01*
X81549999Y-139370000D01*
X81550000Y-139369999D01*
X81550000Y-138370001D01*
X82050000Y-138370001D01*
X82050000Y-139369999D01*
X82050001Y-139370000D01*
X82749999Y-139370000D01*
X82750000Y-139369999D01*
X82750000Y-138921331D01*
X82749999Y-138921328D01*
X82734814Y-138805982D01*
X82734812Y-138805974D01*
X82675365Y-138662456D01*
X82580793Y-138539208D01*
X82580791Y-138539206D01*
X82457543Y-138444634D01*
X82314025Y-138385187D01*
X82314017Y-138385185D01*
X82198671Y-138370000D01*
X82050001Y-138370000D01*
X82050000Y-138370001D01*
X81550000Y-138370001D01*
X81549999Y-138370000D01*
X81401328Y-138370000D01*
X81285982Y-138385185D01*
X81285974Y-138385187D01*
X81142456Y-138444634D01*
X81019208Y-138539206D01*
X81019206Y-138539208D01*
X80924634Y-138662456D01*
X80865187Y-138805974D01*
X80865185Y-138805982D01*
X80850000Y-138921328D01*
X79250499Y-138921328D01*
X79250499Y-138918089D01*
X79250499Y-138916630D01*
X79250499Y-138916628D01*
X79247682Y-138892338D01*
X79203813Y-138792984D01*
X79127016Y-138716187D01*
X79027662Y-138672318D01*
X79027661Y-138672317D01*
X79027659Y-138672317D01*
X79003376Y-138669500D01*
X78196630Y-138669500D01*
X78193776Y-138669666D01*
X78193705Y-138668452D01*
X78138095Y-138657249D01*
X78116677Y-138640995D01*
X77260376Y-137784694D01*
X76395212Y-136919530D01*
X76335811Y-136885235D01*
X76294872Y-136839767D01*
X76288476Y-136778917D01*
X76319069Y-136725929D01*
X76374965Y-136701042D01*
X76385313Y-136700500D01*
X76871678Y-136700500D01*
X76929869Y-136719407D01*
G37*
%TD.AperFunction*%
%TA.AperFunction,Conductor*%
G36*
X84408691Y-134119407D02*
G01*
X84444655Y-134168907D01*
X84449500Y-134199500D01*
X84449500Y-134621677D01*
X84430593Y-134679868D01*
X84420504Y-134691681D01*
X83552686Y-135559500D01*
X83161682Y-135950504D01*
X83107165Y-135978281D01*
X83091678Y-135979500D01*
X81076122Y-135979500D01*
X81017931Y-135960593D01*
X81007170Y-135950000D01*
X79388736Y-135950000D01*
X79352986Y-135975124D01*
X79323878Y-135979500D01*
X78287321Y-135979500D01*
X78229130Y-135960593D01*
X78193166Y-135911093D01*
X78193166Y-135849907D01*
X78217317Y-135810497D01*
X78328317Y-135699496D01*
X78382834Y-135671718D01*
X78398321Y-135670499D01*
X79003370Y-135670499D01*
X79003372Y-135670499D01*
X79027662Y-135667682D01*
X79127016Y-135623813D01*
X79203813Y-135547016D01*
X79233506Y-135479766D01*
X79274305Y-135434172D01*
X79334114Y-135421266D01*
X79390086Y-135445979D01*
X79393775Y-135450000D01*
X81011435Y-135450000D01*
X81046817Y-135425132D01*
X81107995Y-135426092D01*
X81156925Y-135462828D01*
X81166493Y-135479767D01*
X81196185Y-135547013D01*
X81196186Y-135547014D01*
X81196187Y-135547016D01*
X81272984Y-135623813D01*
X81372338Y-135667682D01*
X81396627Y-135670500D01*
X82203372Y-135670499D01*
X82227662Y-135667682D01*
X82327016Y-135623813D01*
X82403813Y-135547016D01*
X82428869Y-135490268D01*
X82469669Y-135444675D01*
X82529478Y-135431769D01*
X82568933Y-135444522D01*
X82606810Y-135466390D01*
X82606808Y-135466390D01*
X82606812Y-135466391D01*
X82606814Y-135466392D01*
X82734108Y-135500500D01*
X82734110Y-135500500D01*
X82865890Y-135500500D01*
X82865892Y-135500500D01*
X82993186Y-135466392D01*
X82993188Y-135466390D01*
X82993190Y-135466390D01*
X83107309Y-135400503D01*
X83107309Y-135400502D01*
X83107314Y-135400500D01*
X83200500Y-135307314D01*
X83228413Y-135258967D01*
X83266390Y-135193190D01*
X83266390Y-135193188D01*
X83266392Y-135193186D01*
X83300500Y-135065892D01*
X83300500Y-134934108D01*
X83266392Y-134806814D01*
X83266390Y-134806811D01*
X83266390Y-134806809D01*
X83200503Y-134692690D01*
X83200501Y-134692688D01*
X83200500Y-134692686D01*
X83107314Y-134599500D01*
X83107311Y-134599498D01*
X83107309Y-134599496D01*
X82993189Y-134533609D01*
X82993191Y-134533609D01*
X82938776Y-134519029D01*
X82865892Y-134499500D01*
X82865890Y-134499500D01*
X82836190Y-134499500D01*
X82777999Y-134480593D01*
X82766187Y-134470505D01*
X82751607Y-134455925D01*
X82735212Y-134439530D01*
X82655288Y-134393386D01*
X82566144Y-134369500D01*
X82566142Y-134369500D01*
X82549499Y-134369500D01*
X82491308Y-134350593D01*
X82455344Y-134301093D01*
X82450499Y-134270500D01*
X82450499Y-134199500D01*
X82469406Y-134141309D01*
X82518906Y-134105345D01*
X82549499Y-134100500D01*
X84350500Y-134100500D01*
X84408691Y-134119407D01*
G37*
%TD.AperFunction*%
%TA.AperFunction,Conductor*%
G36*
X90908691Y-134119407D02*
G01*
X90944655Y-134168907D01*
X90949500Y-134199500D01*
X90949500Y-134621677D01*
X90930593Y-134679868D01*
X90920504Y-134691681D01*
X90002686Y-135609500D01*
X89661682Y-135950504D01*
X89607165Y-135978281D01*
X89591678Y-135979500D01*
X87576122Y-135979500D01*
X87517931Y-135960593D01*
X87507170Y-135950000D01*
X85888736Y-135950000D01*
X85852986Y-135975124D01*
X85823878Y-135979500D01*
X84787320Y-135979500D01*
X84729129Y-135960593D01*
X84693165Y-135911093D01*
X84693165Y-135849907D01*
X84717313Y-135810499D01*
X84828319Y-135699493D01*
X84882834Y-135671718D01*
X84898321Y-135670499D01*
X85503370Y-135670499D01*
X85503372Y-135670499D01*
X85527662Y-135667682D01*
X85627016Y-135623813D01*
X85703813Y-135547016D01*
X85733506Y-135479766D01*
X85774305Y-135434172D01*
X85834114Y-135421266D01*
X85890086Y-135445979D01*
X85893775Y-135450000D01*
X87511435Y-135450000D01*
X87546817Y-135425132D01*
X87607995Y-135426092D01*
X87656925Y-135462828D01*
X87666493Y-135479767D01*
X87696185Y-135547013D01*
X87696186Y-135547014D01*
X87696187Y-135547016D01*
X87772984Y-135623813D01*
X87872338Y-135667682D01*
X87896627Y-135670500D01*
X88703372Y-135670499D01*
X88727662Y-135667682D01*
X88827016Y-135623813D01*
X88903813Y-135547016D01*
X88947682Y-135447662D01*
X88947682Y-135447657D01*
X88949181Y-135444264D01*
X88989981Y-135398668D01*
X89049790Y-135385762D01*
X89089246Y-135398514D01*
X89206810Y-135466390D01*
X89206814Y-135466392D01*
X89334108Y-135500500D01*
X89334110Y-135500500D01*
X89465890Y-135500500D01*
X89465892Y-135500500D01*
X89593186Y-135466392D01*
X89593188Y-135466390D01*
X89593190Y-135466390D01*
X89707309Y-135400503D01*
X89707309Y-135400502D01*
X89707314Y-135400500D01*
X89800500Y-135307314D01*
X89828413Y-135258967D01*
X89866390Y-135193190D01*
X89866390Y-135193188D01*
X89866392Y-135193186D01*
X89900500Y-135065892D01*
X89900500Y-134934108D01*
X89866392Y-134806814D01*
X89866390Y-134806811D01*
X89866390Y-134806809D01*
X89800503Y-134692690D01*
X89800501Y-134692688D01*
X89800500Y-134692686D01*
X89707314Y-134599500D01*
X89707311Y-134599498D01*
X89707309Y-134599496D01*
X89593189Y-134533609D01*
X89593191Y-134533609D01*
X89538776Y-134519029D01*
X89465892Y-134499500D01*
X89465890Y-134499500D01*
X89436190Y-134499500D01*
X89377999Y-134480593D01*
X89366187Y-134470505D01*
X89351607Y-134455925D01*
X89335212Y-134439530D01*
X89255288Y-134393386D01*
X89166144Y-134369500D01*
X89166142Y-134369500D01*
X89049499Y-134369500D01*
X88991308Y-134350593D01*
X88955344Y-134301093D01*
X88950499Y-134270500D01*
X88950499Y-134199500D01*
X88969406Y-134141309D01*
X89018906Y-134105345D01*
X89049499Y-134100500D01*
X90850500Y-134100500D01*
X90908691Y-134119407D01*
G37*
%TD.AperFunction*%
%TA.AperFunction,Conductor*%
G36*
X95899016Y-135089407D02*
G01*
X95934980Y-135138907D01*
X95936446Y-135143858D01*
X95942011Y-135164625D01*
X95945758Y-135178610D01*
X96011645Y-135292730D01*
X96011647Y-135292732D01*
X96011649Y-135292735D01*
X96104835Y-135385921D01*
X96104837Y-135385922D01*
X96104839Y-135385924D01*
X96218959Y-135451811D01*
X96218957Y-135451811D01*
X96218961Y-135451812D01*
X96218963Y-135451813D01*
X96346257Y-135485921D01*
X96346259Y-135485921D01*
X96387257Y-135485921D01*
X96445448Y-135504828D01*
X96481412Y-135554328D01*
X96481412Y-135615514D01*
X96457261Y-135654925D01*
X96161682Y-135950504D01*
X96107165Y-135978281D01*
X96091678Y-135979500D01*
X94076122Y-135979500D01*
X94017931Y-135960593D01*
X94007170Y-135950000D01*
X92388736Y-135950000D01*
X92352986Y-135975124D01*
X92323878Y-135979500D01*
X91287320Y-135979500D01*
X91229129Y-135960593D01*
X91193165Y-135911093D01*
X91193165Y-135849907D01*
X91217313Y-135810499D01*
X91328319Y-135699493D01*
X91382834Y-135671718D01*
X91398321Y-135670499D01*
X92003370Y-135670499D01*
X92003372Y-135670499D01*
X92027662Y-135667682D01*
X92127016Y-135623813D01*
X92203813Y-135547016D01*
X92233506Y-135479766D01*
X92274305Y-135434172D01*
X92334114Y-135421266D01*
X92390086Y-135445979D01*
X92393775Y-135450000D01*
X94011435Y-135450000D01*
X94046817Y-135425132D01*
X94107995Y-135426092D01*
X94156925Y-135462828D01*
X94166493Y-135479767D01*
X94196185Y-135547013D01*
X94196186Y-135547014D01*
X94196187Y-135547016D01*
X94272984Y-135623813D01*
X94372338Y-135667682D01*
X94396627Y-135670500D01*
X95203372Y-135670499D01*
X95227662Y-135667682D01*
X95327016Y-135623813D01*
X95403813Y-135547016D01*
X95447682Y-135447662D01*
X95450500Y-135423373D01*
X95450500Y-135169500D01*
X95469407Y-135111309D01*
X95518907Y-135075345D01*
X95549500Y-135070500D01*
X95840825Y-135070500D01*
X95899016Y-135089407D01*
G37*
%TD.AperFunction*%
%TA.AperFunction,Conductor*%
G36*
X107175484Y-134119407D02*
G01*
X107211448Y-134168907D01*
X107211448Y-134230093D01*
X107181764Y-134271271D01*
X107183097Y-134272604D01*
X107177845Y-134277855D01*
X107097207Y-134387116D01*
X107052355Y-134515296D01*
X107052353Y-134515305D01*
X107049500Y-134545725D01*
X107049500Y-135301678D01*
X107030593Y-135359869D01*
X107020504Y-135371682D01*
X106721682Y-135670504D01*
X106667165Y-135698281D01*
X106651678Y-135699500D01*
X102383260Y-135699500D01*
X101790892Y-135699500D01*
X100484869Y-135699500D01*
X100353084Y-135699500D01*
X100275176Y-135720375D01*
X100225785Y-135733609D01*
X100111666Y-135799496D01*
X100111661Y-135799500D01*
X99960657Y-135950504D01*
X99906141Y-135978281D01*
X99890654Y-135979500D01*
X97787320Y-135979500D01*
X97729129Y-135960593D01*
X97693165Y-135911093D01*
X97693165Y-135849907D01*
X97717313Y-135810499D01*
X97828319Y-135699493D01*
X97882834Y-135671718D01*
X97898321Y-135670499D01*
X98503370Y-135670499D01*
X98503372Y-135670499D01*
X98527662Y-135667682D01*
X98627016Y-135623813D01*
X98703813Y-135547016D01*
X98747682Y-135447662D01*
X98750500Y-135423373D01*
X98750500Y-135339500D01*
X98769407Y-135281309D01*
X98818907Y-135245345D01*
X98849500Y-135240500D01*
X99765891Y-135240500D01*
X99765892Y-135240500D01*
X99827948Y-135223872D01*
X99853571Y-135220499D01*
X99909897Y-135220499D01*
X99909900Y-135220499D01*
X99959487Y-135213972D01*
X99959488Y-135213972D01*
X100018137Y-135186622D01*
X100068316Y-135163224D01*
X100153224Y-135078316D01*
X100203972Y-134969487D01*
X100210500Y-134919901D01*
X100210499Y-134560100D01*
X100203972Y-134510513D01*
X100203972Y-134510511D01*
X100153225Y-134401686D01*
X100153224Y-134401685D01*
X100153224Y-134401684D01*
X100068316Y-134316776D01*
X100068314Y-134316775D01*
X100068313Y-134316774D01*
X100009232Y-134289224D01*
X99964484Y-134247496D01*
X99952809Y-134187435D01*
X99978667Y-134131982D01*
X100032181Y-134102319D01*
X100051071Y-134100500D01*
X107117293Y-134100500D01*
X107175484Y-134119407D01*
G37*
%TD.AperFunction*%
%TA.AperFunction,Conductor*%
G36*
X74608691Y-134119407D02*
G01*
X74644655Y-134168907D01*
X74649500Y-134199500D01*
X74649500Y-135423369D01*
X74649501Y-135423372D01*
X74652317Y-135447661D01*
X74666494Y-135479768D01*
X74696186Y-135547014D01*
X74699893Y-135555408D01*
X74697949Y-135556265D01*
X74711786Y-135603248D01*
X74691270Y-135660892D01*
X74640791Y-135695468D01*
X74612824Y-135699500D01*
X67848320Y-135699500D01*
X67790129Y-135680593D01*
X67778316Y-135670503D01*
X67379496Y-135271682D01*
X67351719Y-135217166D01*
X67350500Y-135201679D01*
X67350500Y-134445727D01*
X67350499Y-134445725D01*
X67347646Y-134415305D01*
X67347646Y-134415301D01*
X67302793Y-134287118D01*
X67292081Y-134272604D01*
X67281516Y-134258288D01*
X67262174Y-134200241D01*
X67280645Y-134141910D01*
X67329875Y-134105577D01*
X67361171Y-134100500D01*
X74550500Y-134100500D01*
X74608691Y-134119407D01*
G37*
%TD.AperFunction*%
%TA.AperFunction,Conductor*%
G36*
X81108691Y-134119407D02*
G01*
X81144655Y-134168907D01*
X81149500Y-134199500D01*
X81149500Y-135258967D01*
X81130593Y-135317158D01*
X81081093Y-135353122D01*
X81019907Y-135353122D01*
X80970407Y-135317158D01*
X80965700Y-135308871D01*
X80965203Y-135309166D01*
X80879721Y-135164625D01*
X80765374Y-135050278D01*
X80754834Y-135044045D01*
X80714371Y-134998150D01*
X80707075Y-134945911D01*
X80710500Y-134919901D01*
X80710499Y-134560100D01*
X80703972Y-134510513D01*
X80703972Y-134510511D01*
X80653225Y-134401686D01*
X80653224Y-134401685D01*
X80653224Y-134401684D01*
X80568316Y-134316776D01*
X80568314Y-134316775D01*
X80568313Y-134316774D01*
X80509232Y-134289224D01*
X80464484Y-134247496D01*
X80452809Y-134187435D01*
X80478667Y-134131982D01*
X80532181Y-134102319D01*
X80551071Y-134100500D01*
X81050500Y-134100500D01*
X81108691Y-134119407D01*
G37*
%TD.AperFunction*%
%TA.AperFunction,Conductor*%
G36*
X87608691Y-134119407D02*
G01*
X87644655Y-134168907D01*
X87649500Y-134199500D01*
X87649500Y-135258967D01*
X87630593Y-135317158D01*
X87581093Y-135353122D01*
X87519907Y-135353122D01*
X87470407Y-135317158D01*
X87465700Y-135308871D01*
X87465203Y-135309166D01*
X87379721Y-135164625D01*
X87265374Y-135050278D01*
X87254834Y-135044045D01*
X87214371Y-134998150D01*
X87207075Y-134945911D01*
X87210500Y-134919901D01*
X87210499Y-134560100D01*
X87203972Y-134510513D01*
X87203972Y-134510511D01*
X87153225Y-134401686D01*
X87153224Y-134401685D01*
X87153224Y-134401684D01*
X87068316Y-134316776D01*
X87068314Y-134316775D01*
X87068313Y-134316774D01*
X87009232Y-134289224D01*
X86964484Y-134247496D01*
X86952809Y-134187435D01*
X86978667Y-134131982D01*
X87032181Y-134102319D01*
X87051071Y-134100500D01*
X87550500Y-134100500D01*
X87608691Y-134119407D01*
G37*
%TD.AperFunction*%
%TD*%
M02*
