%TF.GenerationSoftware,KiCad,Pcbnew,10.0.6*%
%TF.CreationDate,2026-09-28T21:58:28+03:00*%
%TF.ProjectId,OpenLED,4f70656e-4c45-4442-9e6b-696361645f70,rev?*%
%TF.SameCoordinates,Original*%
%TF.FileFunction,Copper,L2,Bot*%
%TF.FilePolarity,Positive*%
%FSLAX46Y46*%
G04 Gerber Fmt 4.6, Leading zero omitted, Abs format (unit mm)*
G04 Created by KiCad (PCBNEW 10.0.6) date 2026-09-28 21:58:28*
%MOMM*%
%LPD*%
G01*
G04 APERTURE LIST*
%TA.AperFunction,ViaPad*%
%ADD10C,0.600000*%
%TD*%
%TA.AperFunction,Conductor*%
%ADD11C,0.300000*%
%TD*%
G04 APERTURE END LIST*
D10*
%TO.N,GND*%
X87350001Y-135306986D03*
X80850002Y-135306985D03*
X70800000Y-139500000D03*
X70600000Y-134900000D03*
X100900000Y-135100000D03*
X80300000Y-138000000D03*
X95900000Y-135600000D03*
X75200000Y-138000000D03*
%TO.N,Net-(D3-DOUT)*%
X96650000Y-139350000D03*
X89400000Y-135000000D03*
%TO.N,Net-(D2-DOUT)*%
X90300000Y-139400000D03*
X82800000Y-135000000D03*
%TO.N,/DOUT*%
X96412149Y-134985421D03*
X100000000Y-137300000D03*
%TO.N,Net-(D1-DOUT)*%
X83950000Y-139450000D03*
X76600000Y-135000000D03*
%TD*%
%TO.N,Net-(D3-DOUT)*%
D11*
X92300000Y-135000000D02*
X89400000Y-135000000D01*
X96650000Y-139350000D02*
X92300000Y-135000000D01*
%TO.N,Net-(D2-DOUT)*%
X90300000Y-139400000D02*
X85900000Y-135000000D01*
X85900000Y-135000000D02*
X82800000Y-135000000D01*
%TO.N,/DOUT*%
X97700000Y-135000000D02*
X100000000Y-137300000D01*
X96426728Y-135000000D02*
X97700000Y-135000000D01*
X96412149Y-134985421D02*
X96426728Y-135000000D01*
%TO.N,Net-(D1-DOUT)*%
X83950000Y-139450000D02*
X79500000Y-135000000D01*
X79500000Y-135000000D02*
X76600000Y-135000000D01*
%TD*%
%TA.AperFunction,Conductor*%
%TO.N,GND*%
G36*
X108758691Y-134119407D02*
G01*
X108794655Y-134168907D01*
X108799500Y-134199500D01*
X108799500Y-140100500D01*
X108780593Y-140158691D01*
X108731093Y-140194655D01*
X108700500Y-140199500D01*
X65699500Y-140199500D01*
X65641309Y-140180593D01*
X65605345Y-140131093D01*
X65600500Y-140100500D01*
X65600500Y-134934108D01*
X76099500Y-134934108D01*
X76099500Y-135065892D01*
X76129579Y-135178151D01*
X76133609Y-135193190D01*
X76199496Y-135307309D01*
X76199498Y-135307311D01*
X76199500Y-135307314D01*
X76292686Y-135400500D01*
X76292688Y-135400501D01*
X76292690Y-135400503D01*
X76406810Y-135466390D01*
X76406808Y-135466390D01*
X76406812Y-135466391D01*
X76406814Y-135466392D01*
X76534108Y-135500500D01*
X76534110Y-135500500D01*
X76665890Y-135500500D01*
X76665892Y-135500500D01*
X76793186Y-135466392D01*
X76793188Y-135466390D01*
X76793190Y-135466390D01*
X76907309Y-135400503D01*
X76907309Y-135400502D01*
X76907314Y-135400500D01*
X76928319Y-135379494D01*
X76982834Y-135351719D01*
X76998321Y-135350500D01*
X79313810Y-135350500D01*
X79372001Y-135369407D01*
X79383814Y-135379496D01*
X83420504Y-139416185D01*
X83448281Y-139470702D01*
X83449500Y-139486189D01*
X83449500Y-139515892D01*
X83470211Y-139593186D01*
X83483609Y-139643190D01*
X83549496Y-139757309D01*
X83549498Y-139757311D01*
X83549500Y-139757314D01*
X83642686Y-139850500D01*
X83642688Y-139850501D01*
X83642690Y-139850503D01*
X83756810Y-139916390D01*
X83756808Y-139916390D01*
X83756812Y-139916391D01*
X83756814Y-139916392D01*
X83884108Y-139950500D01*
X83884110Y-139950500D01*
X84015890Y-139950500D01*
X84015892Y-139950500D01*
X84143186Y-139916392D01*
X84143188Y-139916390D01*
X84143190Y-139916390D01*
X84257309Y-139850503D01*
X84257309Y-139850502D01*
X84257314Y-139850500D01*
X84350500Y-139757314D01*
X84379368Y-139707314D01*
X84416390Y-139643190D01*
X84416390Y-139643188D01*
X84416392Y-139643186D01*
X84450500Y-139515892D01*
X84450500Y-139384108D01*
X84416392Y-139256814D01*
X84416390Y-139256811D01*
X84416390Y-139256809D01*
X84350503Y-139142690D01*
X84350501Y-139142688D01*
X84350500Y-139142686D01*
X84257314Y-139049500D01*
X84257311Y-139049498D01*
X84257309Y-139049496D01*
X84143189Y-138983609D01*
X84143191Y-138983609D01*
X84093799Y-138970375D01*
X84015892Y-138949500D01*
X84015890Y-138949500D01*
X83986189Y-138949500D01*
X83927998Y-138930593D01*
X83916185Y-138920504D01*
X81895177Y-136899496D01*
X79929790Y-134934108D01*
X82299500Y-134934108D01*
X82299500Y-135065892D01*
X82329579Y-135178151D01*
X82333609Y-135193190D01*
X82399496Y-135307309D01*
X82399498Y-135307311D01*
X82399500Y-135307314D01*
X82492686Y-135400500D01*
X82492688Y-135400501D01*
X82492690Y-135400503D01*
X82606810Y-135466390D01*
X82606808Y-135466390D01*
X82606812Y-135466391D01*
X82606814Y-135466392D01*
X82734108Y-135500500D01*
X82734110Y-135500500D01*
X82865890Y-135500500D01*
X82865892Y-135500500D01*
X82993186Y-135466392D01*
X82993188Y-135466390D01*
X82993190Y-135466390D01*
X83107309Y-135400503D01*
X83107309Y-135400502D01*
X83107314Y-135400500D01*
X83128319Y-135379494D01*
X83182834Y-135351719D01*
X83198321Y-135350500D01*
X85713810Y-135350500D01*
X85772001Y-135369407D01*
X85783814Y-135379496D01*
X89770504Y-139366186D01*
X89798281Y-139420703D01*
X89799500Y-139436190D01*
X89799500Y-139465892D01*
X89820211Y-139543186D01*
X89833609Y-139593190D01*
X89899496Y-139707309D01*
X89899498Y-139707311D01*
X89899500Y-139707314D01*
X89992686Y-139800500D01*
X89992688Y-139800501D01*
X89992690Y-139800503D01*
X90106810Y-139866390D01*
X90106808Y-139866390D01*
X90106812Y-139866391D01*
X90106814Y-139866392D01*
X90234108Y-139900500D01*
X90234110Y-139900500D01*
X90365890Y-139900500D01*
X90365892Y-139900500D01*
X90493186Y-139866392D01*
X90493188Y-139866390D01*
X90493190Y-139866390D01*
X90607309Y-139800503D01*
X90607309Y-139800502D01*
X90607314Y-139800500D01*
X90700500Y-139707314D01*
X90729368Y-139657314D01*
X90766390Y-139593190D01*
X90766390Y-139593188D01*
X90766392Y-139593186D01*
X90800500Y-139465892D01*
X90800500Y-139334108D01*
X90766392Y-139206814D01*
X90766390Y-139206811D01*
X90766390Y-139206809D01*
X90700503Y-139092690D01*
X90700501Y-139092688D01*
X90700500Y-139092686D01*
X90607314Y-138999500D01*
X90607311Y-138999498D01*
X90607309Y-138999496D01*
X90493189Y-138933609D01*
X90493191Y-138933609D01*
X90443799Y-138920375D01*
X90365892Y-138899500D01*
X90365890Y-138899500D01*
X90336190Y-138899500D01*
X90277999Y-138880593D01*
X90266186Y-138870504D01*
X88388368Y-136992686D01*
X86329790Y-134934108D01*
X88899500Y-134934108D01*
X88899500Y-135065892D01*
X88929579Y-135178151D01*
X88933609Y-135193190D01*
X88999496Y-135307309D01*
X88999498Y-135307311D01*
X88999500Y-135307314D01*
X89092686Y-135400500D01*
X89092688Y-135400501D01*
X89092690Y-135400503D01*
X89206810Y-135466390D01*
X89206808Y-135466390D01*
X89206812Y-135466391D01*
X89206814Y-135466392D01*
X89334108Y-135500500D01*
X89334110Y-135500500D01*
X89465890Y-135500500D01*
X89465892Y-135500500D01*
X89593186Y-135466392D01*
X89593188Y-135466390D01*
X89593190Y-135466390D01*
X89707309Y-135400503D01*
X89707309Y-135400502D01*
X89707314Y-135400500D01*
X89728319Y-135379494D01*
X89782834Y-135351719D01*
X89798321Y-135350500D01*
X92113810Y-135350500D01*
X92172001Y-135369407D01*
X92183814Y-135379496D01*
X96120504Y-139316186D01*
X96148281Y-139370703D01*
X96149500Y-139386190D01*
X96149500Y-139415892D01*
X96164186Y-139470702D01*
X96183609Y-139543190D01*
X96249496Y-139657309D01*
X96249498Y-139657311D01*
X96249500Y-139657314D01*
X96342686Y-139750500D01*
X96342688Y-139750501D01*
X96342690Y-139750503D01*
X96456810Y-139816390D01*
X96456808Y-139816390D01*
X96456812Y-139816391D01*
X96456814Y-139816392D01*
X96584108Y-139850500D01*
X96584110Y-139850500D01*
X96715890Y-139850500D01*
X96715892Y-139850500D01*
X96843186Y-139816392D01*
X96843188Y-139816390D01*
X96843190Y-139816390D01*
X96957309Y-139750503D01*
X96957309Y-139750502D01*
X96957314Y-139750500D01*
X97050500Y-139657314D01*
X97087522Y-139593190D01*
X97116390Y-139543190D01*
X97116390Y-139543188D01*
X97116392Y-139543186D01*
X97150500Y-139415892D01*
X97150500Y-139284108D01*
X97116392Y-139156814D01*
X97116390Y-139156811D01*
X97116390Y-139156809D01*
X97050503Y-139042690D01*
X97050501Y-139042688D01*
X97050500Y-139042686D01*
X96957314Y-138949500D01*
X96957311Y-138949498D01*
X96957309Y-138949496D01*
X96843189Y-138883609D01*
X96843191Y-138883609D01*
X96793799Y-138870375D01*
X96715892Y-138849500D01*
X96715890Y-138849500D01*
X96686190Y-138849500D01*
X96627999Y-138830593D01*
X96616186Y-138820504D01*
X94788368Y-136992686D01*
X92715211Y-134919529D01*
X95911649Y-134919529D01*
X95911649Y-135051313D01*
X95941728Y-135163572D01*
X95945758Y-135178611D01*
X96011645Y-135292730D01*
X96011647Y-135292732D01*
X96011649Y-135292735D01*
X96104835Y-135385921D01*
X96104837Y-135385922D01*
X96104839Y-135385924D01*
X96218959Y-135451811D01*
X96218957Y-135451811D01*
X96218961Y-135451812D01*
X96218963Y-135451813D01*
X96346257Y-135485921D01*
X96346259Y-135485921D01*
X96478039Y-135485921D01*
X96478041Y-135485921D01*
X96605335Y-135451813D01*
X96605337Y-135451811D01*
X96605339Y-135451811D01*
X96719458Y-135385924D01*
X96719458Y-135385923D01*
X96719463Y-135385921D01*
X96725889Y-135379494D01*
X96780404Y-135351719D01*
X96795891Y-135350500D01*
X97513810Y-135350500D01*
X97572001Y-135369407D01*
X97583814Y-135379496D01*
X99470504Y-137266186D01*
X99498281Y-137320703D01*
X99499500Y-137336190D01*
X99499500Y-137365892D01*
X99529579Y-137478151D01*
X99533609Y-137493190D01*
X99599496Y-137607309D01*
X99599498Y-137607311D01*
X99599500Y-137607314D01*
X99692686Y-137700500D01*
X99692688Y-137700501D01*
X99692690Y-137700503D01*
X99806810Y-137766390D01*
X99806808Y-137766390D01*
X99806812Y-137766391D01*
X99806814Y-137766392D01*
X99934108Y-137800500D01*
X99934110Y-137800500D01*
X100065890Y-137800500D01*
X100065892Y-137800500D01*
X100193186Y-137766392D01*
X100193188Y-137766390D01*
X100193190Y-137766390D01*
X100307309Y-137700503D01*
X100307309Y-137700502D01*
X100307314Y-137700500D01*
X100400500Y-137607314D01*
X100466392Y-137493186D01*
X100500500Y-137365892D01*
X100500500Y-137234108D01*
X100466392Y-137106814D01*
X100466390Y-137106811D01*
X100466390Y-137106809D01*
X100400503Y-136992690D01*
X100400501Y-136992688D01*
X100400500Y-136992686D01*
X100307314Y-136899500D01*
X100307311Y-136899498D01*
X100307309Y-136899496D01*
X100193189Y-136833609D01*
X100193191Y-136833609D01*
X100143799Y-136820375D01*
X100065892Y-136799500D01*
X100065890Y-136799500D01*
X100036190Y-136799500D01*
X99977999Y-136780593D01*
X99966186Y-136770504D01*
X97915212Y-134719530D01*
X97835288Y-134673386D01*
X97746144Y-134649500D01*
X97746142Y-134649500D01*
X96825050Y-134649500D01*
X96766859Y-134630593D01*
X96755047Y-134620504D01*
X96719464Y-134584922D01*
X96719458Y-134584917D01*
X96605338Y-134519030D01*
X96605340Y-134519030D01*
X96555948Y-134505796D01*
X96478041Y-134484921D01*
X96346257Y-134484921D01*
X96268349Y-134505796D01*
X96218958Y-134519030D01*
X96104839Y-134584917D01*
X96011645Y-134678111D01*
X95945758Y-134792230D01*
X95926688Y-134863399D01*
X95911649Y-134919529D01*
X92715211Y-134919529D01*
X92515212Y-134719530D01*
X92435288Y-134673386D01*
X92346144Y-134649500D01*
X92346142Y-134649500D01*
X89798321Y-134649500D01*
X89740130Y-134630593D01*
X89728323Y-134620509D01*
X89707314Y-134599500D01*
X89707311Y-134599498D01*
X89707309Y-134599496D01*
X89593189Y-134533609D01*
X89593191Y-134533609D01*
X89538776Y-134519029D01*
X89465892Y-134499500D01*
X89334108Y-134499500D01*
X89261224Y-134519029D01*
X89206809Y-134533609D01*
X89092690Y-134599496D01*
X88999496Y-134692690D01*
X88933609Y-134806809D01*
X88933608Y-134806814D01*
X88899500Y-134934108D01*
X86329790Y-134934108D01*
X86115212Y-134719530D01*
X86035288Y-134673386D01*
X85946144Y-134649500D01*
X85946142Y-134649500D01*
X83198321Y-134649500D01*
X83140130Y-134630593D01*
X83128323Y-134620509D01*
X83107314Y-134599500D01*
X83107311Y-134599498D01*
X83107309Y-134599496D01*
X82993189Y-134533609D01*
X82993191Y-134533609D01*
X82938776Y-134519029D01*
X82865892Y-134499500D01*
X82734108Y-134499500D01*
X82661224Y-134519029D01*
X82606809Y-134533609D01*
X82492690Y-134599496D01*
X82399496Y-134692690D01*
X82333609Y-134806809D01*
X82333608Y-134806814D01*
X82299500Y-134934108D01*
X79929790Y-134934108D01*
X79715212Y-134719530D01*
X79635288Y-134673386D01*
X79546144Y-134649500D01*
X79546142Y-134649500D01*
X76998321Y-134649500D01*
X76940130Y-134630593D01*
X76928323Y-134620509D01*
X76907314Y-134599500D01*
X76907311Y-134599498D01*
X76907309Y-134599496D01*
X76793189Y-134533609D01*
X76793191Y-134533609D01*
X76738776Y-134519029D01*
X76665892Y-134499500D01*
X76534108Y-134499500D01*
X76461224Y-134519029D01*
X76406809Y-134533609D01*
X76292690Y-134599496D01*
X76199496Y-134692690D01*
X76133609Y-134806809D01*
X76133608Y-134806814D01*
X76099500Y-134934108D01*
X65600500Y-134934108D01*
X65600500Y-134199500D01*
X65619407Y-134141309D01*
X65668907Y-134105345D01*
X65699500Y-134100500D01*
X108700500Y-134100500D01*
X108758691Y-134119407D01*
G37*
%TD.AperFunction*%
%TD*%
M02*
