%TF.GenerationSoftware,KiCad,Pcbnew,10.0.6*%
%TF.CreationDate,2026-09-28T21:58:28+03:00*%
%TF.ProjectId,OpenLED,4f70656e-4c45-4442-9e6b-696361645f70,rev?*%
%TF.SameCoordinates,Original*%
%TF.FileFunction,Legend,Bot*%
%TF.FilePolarity,Positive*%
%FSLAX46Y46*%
G04 Gerber Fmt 4.6, Leading zero omitted, Abs format (unit mm)*
G04 Created by KiCad (PCBNEW 10.0.6) date 2026-09-28 21:58:28*
%MOMM*%
%LPD*%
G01*
G04 APERTURE LIST*
%ADD10C,0.100000*%
G04 APERTURE END LIST*
D10*
X67819925Y-134472419D02*
X68296115Y-134472419D01*
X68296115Y-134472419D02*
X68343734Y-134948609D01*
X68343734Y-134948609D02*
X68296115Y-134900990D01*
X68296115Y-134900990D02*
X68200877Y-134853371D01*
X68200877Y-134853371D02*
X67962782Y-134853371D01*
X67962782Y-134853371D02*
X67867544Y-134900990D01*
X67867544Y-134900990D02*
X67819925Y-134948609D01*
X67819925Y-134948609D02*
X67772306Y-135043847D01*
X67772306Y-135043847D02*
X67772306Y-135281942D01*
X67772306Y-135281942D02*
X67819925Y-135377180D01*
X67819925Y-135377180D02*
X67867544Y-135424800D01*
X67867544Y-135424800D02*
X67962782Y-135472419D01*
X67962782Y-135472419D02*
X68200877Y-135472419D01*
X68200877Y-135472419D02*
X68296115Y-135424800D01*
X68296115Y-135424800D02*
X68343734Y-135377180D01*
X67486591Y-134472419D02*
X67153258Y-135472419D01*
X67153258Y-135472419D02*
X66819925Y-134472419D01*
X66486591Y-135091466D02*
X65724687Y-135091466D01*
X66105639Y-135472419D02*
X66105639Y-134710514D01*
X68296115Y-137572419D02*
X68296115Y-136572419D01*
X68296115Y-136572419D02*
X68058020Y-136572419D01*
X68058020Y-136572419D02*
X67915163Y-136620038D01*
X67915163Y-136620038D02*
X67819925Y-136715276D01*
X67819925Y-136715276D02*
X67772306Y-136810514D01*
X67772306Y-136810514D02*
X67724687Y-137000990D01*
X67724687Y-137000990D02*
X67724687Y-137143847D01*
X67724687Y-137143847D02*
X67772306Y-137334323D01*
X67772306Y-137334323D02*
X67819925Y-137429561D01*
X67819925Y-137429561D02*
X67915163Y-137524800D01*
X67915163Y-137524800D02*
X68058020Y-137572419D01*
X68058020Y-137572419D02*
X68296115Y-137572419D01*
X67296115Y-137572419D02*
X67296115Y-136572419D01*
X66819925Y-137572419D02*
X66819925Y-136572419D01*
X66819925Y-136572419D02*
X66248497Y-137572419D01*
X66248497Y-137572419D02*
X66248497Y-136572419D01*
X67772306Y-138720038D02*
X67867544Y-138672419D01*
X67867544Y-138672419D02*
X68010401Y-138672419D01*
X68010401Y-138672419D02*
X68153258Y-138720038D01*
X68153258Y-138720038D02*
X68248496Y-138815276D01*
X68248496Y-138815276D02*
X68296115Y-138910514D01*
X68296115Y-138910514D02*
X68343734Y-139100990D01*
X68343734Y-139100990D02*
X68343734Y-139243847D01*
X68343734Y-139243847D02*
X68296115Y-139434323D01*
X68296115Y-139434323D02*
X68248496Y-139529561D01*
X68248496Y-139529561D02*
X68153258Y-139624800D01*
X68153258Y-139624800D02*
X68010401Y-139672419D01*
X68010401Y-139672419D02*
X67915163Y-139672419D01*
X67915163Y-139672419D02*
X67772306Y-139624800D01*
X67772306Y-139624800D02*
X67724687Y-139577180D01*
X67724687Y-139577180D02*
X67724687Y-139243847D01*
X67724687Y-139243847D02*
X67915163Y-139243847D01*
X67296115Y-139672419D02*
X67296115Y-138672419D01*
X67296115Y-138672419D02*
X66724687Y-139672419D01*
X66724687Y-139672419D02*
X66724687Y-138672419D01*
X66248496Y-139672419D02*
X66248496Y-138672419D01*
X66248496Y-138672419D02*
X66010401Y-138672419D01*
X66010401Y-138672419D02*
X65867544Y-138720038D01*
X65867544Y-138720038D02*
X65772306Y-138815276D01*
X65772306Y-138815276D02*
X65724687Y-138910514D01*
X65724687Y-138910514D02*
X65677068Y-139100990D01*
X65677068Y-139100990D02*
X65677068Y-139243847D01*
X65677068Y-139243847D02*
X65724687Y-139434323D01*
X65724687Y-139434323D02*
X65772306Y-139529561D01*
X65772306Y-139529561D02*
X65867544Y-139624800D01*
X65867544Y-139624800D02*
X66010401Y-139672419D01*
X66010401Y-139672419D02*
X66248496Y-139672419D01*
X107969925Y-134522419D02*
X108446115Y-134522419D01*
X108446115Y-134522419D02*
X108493734Y-134998609D01*
X108493734Y-134998609D02*
X108446115Y-134950990D01*
X108446115Y-134950990D02*
X108350877Y-134903371D01*
X108350877Y-134903371D02*
X108112782Y-134903371D01*
X108112782Y-134903371D02*
X108017544Y-134950990D01*
X108017544Y-134950990D02*
X107969925Y-134998609D01*
X107969925Y-134998609D02*
X107922306Y-135093847D01*
X107922306Y-135093847D02*
X107922306Y-135331942D01*
X107922306Y-135331942D02*
X107969925Y-135427180D01*
X107969925Y-135427180D02*
X108017544Y-135474800D01*
X108017544Y-135474800D02*
X108112782Y-135522419D01*
X108112782Y-135522419D02*
X108350877Y-135522419D01*
X108350877Y-135522419D02*
X108446115Y-135474800D01*
X108446115Y-135474800D02*
X108493734Y-135427180D01*
X107636591Y-134522419D02*
X107303258Y-135522419D01*
X107303258Y-135522419D02*
X106969925Y-134522419D01*
X106636591Y-135141466D02*
X105874687Y-135141466D01*
X106255639Y-135522419D02*
X106255639Y-134760514D01*
X108446115Y-137622419D02*
X108446115Y-136622419D01*
X108446115Y-136622419D02*
X108208020Y-136622419D01*
X108208020Y-136622419D02*
X108065163Y-136670038D01*
X108065163Y-136670038D02*
X107969925Y-136765276D01*
X107969925Y-136765276D02*
X107922306Y-136860514D01*
X107922306Y-136860514D02*
X107874687Y-137050990D01*
X107874687Y-137050990D02*
X107874687Y-137193847D01*
X107874687Y-137193847D02*
X107922306Y-137384323D01*
X107922306Y-137384323D02*
X107969925Y-137479561D01*
X107969925Y-137479561D02*
X108065163Y-137574800D01*
X108065163Y-137574800D02*
X108208020Y-137622419D01*
X108208020Y-137622419D02*
X108446115Y-137622419D01*
X107255639Y-136622419D02*
X107065163Y-136622419D01*
X107065163Y-136622419D02*
X106969925Y-136670038D01*
X106969925Y-136670038D02*
X106874687Y-136765276D01*
X106874687Y-136765276D02*
X106827068Y-136955752D01*
X106827068Y-136955752D02*
X106827068Y-137289085D01*
X106827068Y-137289085D02*
X106874687Y-137479561D01*
X106874687Y-137479561D02*
X106969925Y-137574800D01*
X106969925Y-137574800D02*
X107065163Y-137622419D01*
X107065163Y-137622419D02*
X107255639Y-137622419D01*
X107255639Y-137622419D02*
X107350877Y-137574800D01*
X107350877Y-137574800D02*
X107446115Y-137479561D01*
X107446115Y-137479561D02*
X107493734Y-137289085D01*
X107493734Y-137289085D02*
X107493734Y-136955752D01*
X107493734Y-136955752D02*
X107446115Y-136765276D01*
X107446115Y-136765276D02*
X107350877Y-136670038D01*
X107350877Y-136670038D02*
X107255639Y-136622419D01*
X106398496Y-136622419D02*
X106398496Y-137431942D01*
X106398496Y-137431942D02*
X106350877Y-137527180D01*
X106350877Y-137527180D02*
X106303258Y-137574800D01*
X106303258Y-137574800D02*
X106208020Y-137622419D01*
X106208020Y-137622419D02*
X106017544Y-137622419D01*
X106017544Y-137622419D02*
X105922306Y-137574800D01*
X105922306Y-137574800D02*
X105874687Y-137527180D01*
X105874687Y-137527180D02*
X105827068Y-137431942D01*
X105827068Y-137431942D02*
X105827068Y-136622419D01*
X105493734Y-136622419D02*
X104922306Y-136622419D01*
X105208020Y-137622419D02*
X105208020Y-136622419D01*
X107922306Y-138770038D02*
X108017544Y-138722419D01*
X108017544Y-138722419D02*
X108160401Y-138722419D01*
X108160401Y-138722419D02*
X108303258Y-138770038D01*
X108303258Y-138770038D02*
X108398496Y-138865276D01*
X108398496Y-138865276D02*
X108446115Y-138960514D01*
X108446115Y-138960514D02*
X108493734Y-139150990D01*
X108493734Y-139150990D02*
X108493734Y-139293847D01*
X108493734Y-139293847D02*
X108446115Y-139484323D01*
X108446115Y-139484323D02*
X108398496Y-139579561D01*
X108398496Y-139579561D02*
X108303258Y-139674800D01*
X108303258Y-139674800D02*
X108160401Y-139722419D01*
X108160401Y-139722419D02*
X108065163Y-139722419D01*
X108065163Y-139722419D02*
X107922306Y-139674800D01*
X107922306Y-139674800D02*
X107874687Y-139627180D01*
X107874687Y-139627180D02*
X107874687Y-139293847D01*
X107874687Y-139293847D02*
X108065163Y-139293847D01*
X107446115Y-139722419D02*
X107446115Y-138722419D01*
X107446115Y-138722419D02*
X106874687Y-139722419D01*
X106874687Y-139722419D02*
X106874687Y-138722419D01*
X106398496Y-139722419D02*
X106398496Y-138722419D01*
X106398496Y-138722419D02*
X106160401Y-138722419D01*
X106160401Y-138722419D02*
X106017544Y-138770038D01*
X106017544Y-138770038D02*
X105922306Y-138865276D01*
X105922306Y-138865276D02*
X105874687Y-138960514D01*
X105874687Y-138960514D02*
X105827068Y-139150990D01*
X105827068Y-139150990D02*
X105827068Y-139293847D01*
X105827068Y-139293847D02*
X105874687Y-139484323D01*
X105874687Y-139484323D02*
X105922306Y-139579561D01*
X105922306Y-139579561D02*
X106017544Y-139674800D01*
X106017544Y-139674800D02*
X106160401Y-139722419D01*
X106160401Y-139722419D02*
X106398496Y-139722419D01*
%LPC*%
%LPD*%
M02*
