%TF.GenerationSoftware,KiCad,Pcbnew,10.0.6*%
%TF.CreationDate,2026-09-28T21:58:28+03:00*%
%TF.ProjectId,OpenLED,4f70656e-4c45-4442-9e6b-696361645f70,rev?*%
%TF.SameCoordinates,Original*%
%TF.FileFunction,Soldermask,Top*%
%TF.FilePolarity,Negative*%
%FSLAX46Y46*%
G04 Gerber Fmt 4.6, Leading zero omitted, Abs format (unit mm)*
G04 Created by KiCad (PCBNEW 10.0.6) date 2026-09-28 21:58:28*
%MOMM*%
%LPD*%
G01*
G04 APERTURE LIST*
G04 Aperture macros list*
%AMRoundRect*
0 Rectangle with rounded corners*
0 $1 Rounding radius*
0 $2 $3 $4 $5 $6 $7 $8 $9 X,Y pos of 4 corners*
0 Add a 4 corners polygon primitive as box body*
4,1,4,$2,$3,$4,$5,$6,$7,$8,$9,$2,$3,0*
0 Add four circle primitives for the rounded corners*
1,1,$1+$1,$2,$3*
1,1,$1+$1,$4,$5*
1,1,$1+$1,$6,$7*
1,1,$1+$1,$8,$9*
0 Add four rect primitives between the rounded corners*
20,1,$1+$1,$2,$3,$4,$5,0*
20,1,$1+$1,$4,$5,$6,$7,0*
20,1,$1+$1,$6,$7,$8,$9,0*
20,1,$1+$1,$8,$9,$2,$3,0*%
G04 Aperture macros list end*
%ADD10RoundRect,0.250000X-0.500000X-0.500000X0.500000X-0.500000X0.500000X0.500000X-0.500000X0.500000X0*%
%ADD11RoundRect,0.090000X-0.360000X0.660000X-0.360000X-0.660000X0.360000X-0.660000X0.360000X0.660000X0*%
%ADD12RoundRect,0.140000X0.170000X-0.140000X0.170000X0.140000X-0.170000X0.140000X-0.170000X-0.140000X0*%
%ADD13RoundRect,0.150000X-0.625000X0.150000X-0.625000X-0.150000X0.625000X-0.150000X0.625000X0.150000X0*%
%ADD14RoundRect,0.250000X-0.650000X0.350000X-0.650000X-0.350000X0.650000X-0.350000X0.650000X0.350000X0*%
%ADD15RoundRect,0.150000X0.625000X-0.150000X0.625000X0.150000X-0.625000X0.150000X-0.625000X-0.150000X0*%
%ADD16RoundRect,0.250000X0.650000X-0.350000X0.650000X0.350000X-0.650000X0.350000X-0.650000X-0.350000X0*%
G04 APERTURE END LIST*
D10*
%TO.C,*%
X66400000Y-139200000D03*
%TD*%
D11*
%TO.C,D3*%
X91600000Y-134720000D03*
X88300000Y-134720000D03*
X88300000Y-139620000D03*
X91600000Y-139620000D03*
%TD*%
%TO.C,D1*%
X78600000Y-134720000D03*
X75300000Y-134720000D03*
X75300000Y-139620000D03*
X78600000Y-139620000D03*
%TD*%
D10*
%TO.C,*%
X66400000Y-137100000D03*
%TD*%
D12*
%TO.C,C3*%
X93200000Y-135700000D03*
X93200000Y-134740000D03*
%TD*%
D11*
%TO.C,D4*%
X98100000Y-134720000D03*
X94800000Y-134720000D03*
X94800000Y-139620000D03*
X98100000Y-139620000D03*
%TD*%
D10*
%TO.C,*%
X108000000Y-137200000D03*
%TD*%
D12*
%TO.C,C1*%
X80200000Y-135700000D03*
X80200000Y-134740000D03*
%TD*%
D10*
%TO.C,*%
X66400000Y-135000000D03*
%TD*%
%TO.C,*%
X108000000Y-139300000D03*
%TD*%
D12*
%TO.C,C2*%
X86700000Y-135700000D03*
X86700000Y-134740000D03*
%TD*%
D11*
%TO.C,D2*%
X85100000Y-134720000D03*
X81800000Y-134720000D03*
X81800000Y-139620000D03*
X85100000Y-139620000D03*
%TD*%
D10*
%TO.C,*%
X108000000Y-135100000D03*
%TD*%
D13*
%TO.C,CN2*%
X72700000Y-136200000D03*
X72700000Y-137200000D03*
X72700000Y-138200000D03*
D14*
X68825000Y-134900000D03*
X68825000Y-139500000D03*
%TD*%
D12*
%TO.C,C4*%
X99700000Y-135700000D03*
X99700000Y-134740000D03*
%TD*%
D15*
%TO.C,CN1*%
X101725000Y-138200000D03*
X101725000Y-137200000D03*
X101725000Y-136200000D03*
D16*
X105600000Y-139500000D03*
X105600000Y-134900000D03*
%TD*%
M02*
