%TF.GenerationSoftware,KiCad,Pcbnew,10.0.6*%
%TF.CreationDate,2026-09-28T21:56:26+03:00*%
%TF.ProjectId,OpenLED,4f70656e-4c45-4442-9e6b-696361645f70,rev?*%
%TF.SameCoordinates,Original*%
%TF.FileFunction,Legend,Bot*%
%TF.FilePolarity,Positive*%
%FSLAX46Y46*%
G04 Gerber Fmt 4.6, Leading zero omitted, Abs format (unit mm)*
G04 Created by KiCad (PCBNEW 10.0.6) date 2026-09-28 21:56:26*
%MOMM*%
%LPD*%
G01*
G04 APERTURE LIST*
%ADD10C,0.100000*%
G04 APERTURE END LIST*
D10*
X74119925Y-134472419D02*
X74596115Y-134472419D01*
X74596115Y-134472419D02*
X74643734Y-134948609D01*
X74643734Y-134948609D02*
X74596115Y-134900990D01*
X74596115Y-134900990D02*
X74500877Y-134853371D01*
X74500877Y-134853371D02*
X74262782Y-134853371D01*
X74262782Y-134853371D02*
X74167544Y-134900990D01*
X74167544Y-134900990D02*
X74119925Y-134948609D01*
X74119925Y-134948609D02*
X74072306Y-135043847D01*
X74072306Y-135043847D02*
X74072306Y-135281942D01*
X74072306Y-135281942D02*
X74119925Y-135377180D01*
X74119925Y-135377180D02*
X74167544Y-135424800D01*
X74167544Y-135424800D02*
X74262782Y-135472419D01*
X74262782Y-135472419D02*
X74500877Y-135472419D01*
X74500877Y-135472419D02*
X74596115Y-135424800D01*
X74596115Y-135424800D02*
X74643734Y-135377180D01*
X73786591Y-134472419D02*
X73453258Y-135472419D01*
X73453258Y-135472419D02*
X73119925Y-134472419D01*
X72786591Y-135091466D02*
X72024687Y-135091466D01*
X72405639Y-135472419D02*
X72405639Y-134710514D01*
X74596115Y-137572419D02*
X74596115Y-136572419D01*
X74596115Y-136572419D02*
X74358020Y-136572419D01*
X74358020Y-136572419D02*
X74215163Y-136620038D01*
X74215163Y-136620038D02*
X74119925Y-136715276D01*
X74119925Y-136715276D02*
X74072306Y-136810514D01*
X74072306Y-136810514D02*
X74024687Y-137000990D01*
X74024687Y-137000990D02*
X74024687Y-137143847D01*
X74024687Y-137143847D02*
X74072306Y-137334323D01*
X74072306Y-137334323D02*
X74119925Y-137429561D01*
X74119925Y-137429561D02*
X74215163Y-137524800D01*
X74215163Y-137524800D02*
X74358020Y-137572419D01*
X74358020Y-137572419D02*
X74596115Y-137572419D01*
X73596115Y-137572419D02*
X73596115Y-136572419D01*
X73119925Y-137572419D02*
X73119925Y-136572419D01*
X73119925Y-136572419D02*
X72548497Y-137572419D01*
X72548497Y-137572419D02*
X72548497Y-136572419D01*
X74072306Y-138720038D02*
X74167544Y-138672419D01*
X74167544Y-138672419D02*
X74310401Y-138672419D01*
X74310401Y-138672419D02*
X74453258Y-138720038D01*
X74453258Y-138720038D02*
X74548496Y-138815276D01*
X74548496Y-138815276D02*
X74596115Y-138910514D01*
X74596115Y-138910514D02*
X74643734Y-139100990D01*
X74643734Y-139100990D02*
X74643734Y-139243847D01*
X74643734Y-139243847D02*
X74596115Y-139434323D01*
X74596115Y-139434323D02*
X74548496Y-139529561D01*
X74548496Y-139529561D02*
X74453258Y-139624800D01*
X74453258Y-139624800D02*
X74310401Y-139672419D01*
X74310401Y-139672419D02*
X74215163Y-139672419D01*
X74215163Y-139672419D02*
X74072306Y-139624800D01*
X74072306Y-139624800D02*
X74024687Y-139577180D01*
X74024687Y-139577180D02*
X74024687Y-139243847D01*
X74024687Y-139243847D02*
X74215163Y-139243847D01*
X73596115Y-139672419D02*
X73596115Y-138672419D01*
X73596115Y-138672419D02*
X73024687Y-139672419D01*
X73024687Y-139672419D02*
X73024687Y-138672419D01*
X72548496Y-139672419D02*
X72548496Y-138672419D01*
X72548496Y-138672419D02*
X72310401Y-138672419D01*
X72310401Y-138672419D02*
X72167544Y-138720038D01*
X72167544Y-138720038D02*
X72072306Y-138815276D01*
X72072306Y-138815276D02*
X72024687Y-138910514D01*
X72024687Y-138910514D02*
X71977068Y-139100990D01*
X71977068Y-139100990D02*
X71977068Y-139243847D01*
X71977068Y-139243847D02*
X72024687Y-139434323D01*
X72024687Y-139434323D02*
X72072306Y-139529561D01*
X72072306Y-139529561D02*
X72167544Y-139624800D01*
X72167544Y-139624800D02*
X72310401Y-139672419D01*
X72310401Y-139672419D02*
X72548496Y-139672419D01*
X101469925Y-134522419D02*
X101946115Y-134522419D01*
X101946115Y-134522419D02*
X101993734Y-134998609D01*
X101993734Y-134998609D02*
X101946115Y-134950990D01*
X101946115Y-134950990D02*
X101850877Y-134903371D01*
X101850877Y-134903371D02*
X101612782Y-134903371D01*
X101612782Y-134903371D02*
X101517544Y-134950990D01*
X101517544Y-134950990D02*
X101469925Y-134998609D01*
X101469925Y-134998609D02*
X101422306Y-135093847D01*
X101422306Y-135093847D02*
X101422306Y-135331942D01*
X101422306Y-135331942D02*
X101469925Y-135427180D01*
X101469925Y-135427180D02*
X101517544Y-135474800D01*
X101517544Y-135474800D02*
X101612782Y-135522419D01*
X101612782Y-135522419D02*
X101850877Y-135522419D01*
X101850877Y-135522419D02*
X101946115Y-135474800D01*
X101946115Y-135474800D02*
X101993734Y-135427180D01*
X101136591Y-134522419D02*
X100803258Y-135522419D01*
X100803258Y-135522419D02*
X100469925Y-134522419D01*
X100136591Y-135141466D02*
X99374687Y-135141466D01*
X99755639Y-135522419D02*
X99755639Y-134760514D01*
X101946115Y-137622419D02*
X101946115Y-136622419D01*
X101946115Y-136622419D02*
X101708020Y-136622419D01*
X101708020Y-136622419D02*
X101565163Y-136670038D01*
X101565163Y-136670038D02*
X101469925Y-136765276D01*
X101469925Y-136765276D02*
X101422306Y-136860514D01*
X101422306Y-136860514D02*
X101374687Y-137050990D01*
X101374687Y-137050990D02*
X101374687Y-137193847D01*
X101374687Y-137193847D02*
X101422306Y-137384323D01*
X101422306Y-137384323D02*
X101469925Y-137479561D01*
X101469925Y-137479561D02*
X101565163Y-137574800D01*
X101565163Y-137574800D02*
X101708020Y-137622419D01*
X101708020Y-137622419D02*
X101946115Y-137622419D01*
X100755639Y-136622419D02*
X100565163Y-136622419D01*
X100565163Y-136622419D02*
X100469925Y-136670038D01*
X100469925Y-136670038D02*
X100374687Y-136765276D01*
X100374687Y-136765276D02*
X100327068Y-136955752D01*
X100327068Y-136955752D02*
X100327068Y-137289085D01*
X100327068Y-137289085D02*
X100374687Y-137479561D01*
X100374687Y-137479561D02*
X100469925Y-137574800D01*
X100469925Y-137574800D02*
X100565163Y-137622419D01*
X100565163Y-137622419D02*
X100755639Y-137622419D01*
X100755639Y-137622419D02*
X100850877Y-137574800D01*
X100850877Y-137574800D02*
X100946115Y-137479561D01*
X100946115Y-137479561D02*
X100993734Y-137289085D01*
X100993734Y-137289085D02*
X100993734Y-136955752D01*
X100993734Y-136955752D02*
X100946115Y-136765276D01*
X100946115Y-136765276D02*
X100850877Y-136670038D01*
X100850877Y-136670038D02*
X100755639Y-136622419D01*
X99898496Y-136622419D02*
X99898496Y-137431942D01*
X99898496Y-137431942D02*
X99850877Y-137527180D01*
X99850877Y-137527180D02*
X99803258Y-137574800D01*
X99803258Y-137574800D02*
X99708020Y-137622419D01*
X99708020Y-137622419D02*
X99517544Y-137622419D01*
X99517544Y-137622419D02*
X99422306Y-137574800D01*
X99422306Y-137574800D02*
X99374687Y-137527180D01*
X99374687Y-137527180D02*
X99327068Y-137431942D01*
X99327068Y-137431942D02*
X99327068Y-136622419D01*
X98993734Y-136622419D02*
X98422306Y-136622419D01*
X98708020Y-137622419D02*
X98708020Y-136622419D01*
X101422306Y-138770038D02*
X101517544Y-138722419D01*
X101517544Y-138722419D02*
X101660401Y-138722419D01*
X101660401Y-138722419D02*
X101803258Y-138770038D01*
X101803258Y-138770038D02*
X101898496Y-138865276D01*
X101898496Y-138865276D02*
X101946115Y-138960514D01*
X101946115Y-138960514D02*
X101993734Y-139150990D01*
X101993734Y-139150990D02*
X101993734Y-139293847D01*
X101993734Y-139293847D02*
X101946115Y-139484323D01*
X101946115Y-139484323D02*
X101898496Y-139579561D01*
X101898496Y-139579561D02*
X101803258Y-139674800D01*
X101803258Y-139674800D02*
X101660401Y-139722419D01*
X101660401Y-139722419D02*
X101565163Y-139722419D01*
X101565163Y-139722419D02*
X101422306Y-139674800D01*
X101422306Y-139674800D02*
X101374687Y-139627180D01*
X101374687Y-139627180D02*
X101374687Y-139293847D01*
X101374687Y-139293847D02*
X101565163Y-139293847D01*
X100946115Y-139722419D02*
X100946115Y-138722419D01*
X100946115Y-138722419D02*
X100374687Y-139722419D01*
X100374687Y-139722419D02*
X100374687Y-138722419D01*
X99898496Y-139722419D02*
X99898496Y-138722419D01*
X99898496Y-138722419D02*
X99660401Y-138722419D01*
X99660401Y-138722419D02*
X99517544Y-138770038D01*
X99517544Y-138770038D02*
X99422306Y-138865276D01*
X99422306Y-138865276D02*
X99374687Y-138960514D01*
X99374687Y-138960514D02*
X99327068Y-139150990D01*
X99327068Y-139150990D02*
X99327068Y-139293847D01*
X99327068Y-139293847D02*
X99374687Y-139484323D01*
X99374687Y-139484323D02*
X99422306Y-139579561D01*
X99422306Y-139579561D02*
X99517544Y-139674800D01*
X99517544Y-139674800D02*
X99660401Y-139722419D01*
X99660401Y-139722419D02*
X99898496Y-139722419D01*
%LPC*%
%LPD*%
M02*
